M48
;Layer_Color=9474304
;FILE_FORMAT=4:4
METRIC,LZ
;TYPE=PLATED
T1F00S00C0.2500
T2F00S00C0.2540
T3F00S00C1.1000
;TYPE=NON_PLATED
T4F00S00C1.0668
%
T01
X0003Y00109
X00035Y00138765
X00022127Y00165796
X00029Y00187
X00042Y00188
X00055Y00177
X0005275Y0020825
X00036Y00223
X0005203Y00243726
X00041833Y0025807
X00039Y0029
X00092Y00314526
X00130583Y0029096
X00134881Y0028358
X00167Y00292
X00201Y00288
X00214383Y00274378
X00227Y00268
X00239Y00253
X00265Y00256
Y00267
X0027101Y00291398
X00249777Y00306875
X0029213Y0032054
X00275Y00214
X00264Y00203
X00288Y00195
X00323Y00214
X0021Y00254
X0010737Y00246657
X00091Y00207
X00147Y00333
X0016554Y00332286
T02
X00042Y00018
Y00027
Y00036
X00094
Y00027
Y00018
X00098Y00049
X0011
X00122Y00048
Y00072
X00133
X00145
X00154Y00093
Y001
X00156Y00107
X00168
X00185
X0019Y00091
X00201
X00223
X00234
X00243Y00117
X00268Y00143
X00264Y00172
X00272Y00177
X00288Y00183
X00291Y00169
X003127Y001693
X00321Y00188
X0033
Y00202
X00319Y002
X0029Y00211
X00275Y00202
X00269Y00237
X00282Y00264
X00326Y0028
X0033Y00249
X00306Y0032
X00259113Y00303726
X00225025Y00282586
X00194Y0026692
Y00251
X00176Y00244
X00158
X00159Y00261
X00174Y00263
X00134Y00262
X00089Y00267
X00091Y00241
Y00224
X00084097Y00176114
X00076Y00161
Y0015
Y00139
Y00128
X00054Y0011
X0006Y00104
X00088Y00091
X00103Y00098
X00111Y00107
X00123
X00141
X00151Y00141
X00166
X00184
X00187Y00036
Y00027
Y00018
X00239
Y00027
Y00036
X00111Y00072
X00059Y00278
X00059434Y00292186
X0006Y00304
X00068Y00297
X00083Y0031
X00015979Y0031325
X0001004Y00291
X00039Y00275
X0022651Y0023251
X00228Y00217
T03
X00022Y000236
Y00049
Y000744
X0032
Y00049
Y000236
X00298Y003513
Y003767
X002726
X002472
X002218
Y003513
X002472
X002726
X001964
Y003767
X00171
X001456
Y003513
X00171
X001202
X000948
Y003767
X001202
X000694
Y003513
X00044
Y003767
T04
X0030635Y001566
X003165Y002328
X002962
M30
