G04*
G04 #@! TF.GenerationSoftware,Altium Limited,Altium Designer,22.9.1 (49)*
G04*
G04 Layer_Physical_Order=1*
G04 Layer_Color=255*
%FSLAX44Y44*%
%MOMM*%
G71*
G04*
G04 #@! TF.SameCoordinates,160F3373-32AC-4E58-B31D-FCE43EB9D5FB*
G04*
G04*
G04 #@! TF.FilePolarity,Positive*
G04*
G01*
G75*
%ADD13C,0.2540*%
%ADD16R,1.0000X1.0500*%
%ADD17R,1.0500X2.2000*%
%ADD18R,0.5400X0.8500*%
%ADD19R,0.3600X0.2500*%
%ADD20R,0.2500X0.3600*%
%ADD21R,0.6000X0.6000*%
%ADD22C,0.8636*%
%ADD23R,0.4064X0.8636*%
%ADD24R,1.1500X0.7000*%
%ADD25R,0.7000X1.1500*%
%ADD26R,1.0000X1.0000*%
%ADD42C,0.3000*%
%ADD43C,0.1500*%
%ADD44C,0.5000*%
%ADD45C,1.0668*%
%ADD46C,1.6500*%
%ADD47R,1.6500X1.6500*%
%ADD48R,1.6000X1.6000*%
%ADD49C,1.6000*%
%ADD50C,0.5080*%
%ADD51C,0.6000*%
G36*
X76000Y305000D02*
Y275000D01*
X75000Y274000D01*
X56000D01*
X55000Y275000D01*
Y303265D01*
X59735Y308000D01*
X73000D01*
X76000Y305000D01*
D02*
G37*
G36*
X127000Y110000D02*
Y106000D01*
X126000Y105000D01*
Y87000D01*
X125000Y86000D01*
Y71000D01*
X123000Y69000D01*
X110000D01*
X106000Y73000D01*
Y91000D01*
X105000Y92000D01*
X99000D01*
X97000Y94000D01*
Y110000D01*
X100000Y113000D01*
X124000D01*
X127000Y110000D01*
D02*
G37*
G36*
X158429Y100365D02*
Y89500D01*
X149200D01*
Y74000D01*
X149429D01*
Y69365D01*
X147429Y67365D01*
X130429D01*
X128429Y69365D01*
Y99365D01*
X131429Y102365D01*
X156429D01*
X158429Y100365D01*
D02*
G37*
G36*
X203000Y36820D02*
X201730Y35778D01*
X201700Y35784D01*
X200424Y35530D01*
X199342Y34808D01*
X195893Y31358D01*
X195170Y30276D01*
X194916Y29000D01*
X195170Y27724D01*
X195893Y26642D01*
X196974Y25920D01*
X198250Y25666D01*
X199526Y25920D01*
X200607Y26642D01*
X201827Y27862D01*
X203000Y27376D01*
Y12000D01*
X182000D01*
Y41000D01*
X203000D01*
Y36820D01*
D02*
G37*
G36*
X58250Y29892D02*
X57999Y29687D01*
X56357Y29857D01*
X55276Y30580D01*
X54000Y30834D01*
X52724Y30580D01*
X51642Y29857D01*
X51143Y29358D01*
X50420Y28276D01*
X50166Y27000D01*
X50420Y25724D01*
X51143Y24643D01*
X52224Y23920D01*
X53500Y23666D01*
X54776Y23920D01*
X55858Y24643D01*
X56357Y25143D01*
X57999Y25313D01*
X58250Y25108D01*
Y12000D01*
X37250D01*
Y41000D01*
X58250D01*
Y29892D01*
D02*
G37*
G36*
X244000Y12000D02*
X223000D01*
Y41000D01*
X244000D01*
Y12000D01*
D02*
G37*
G36*
X99250D02*
X78250D01*
Y41000D01*
X99250D01*
Y12000D01*
D02*
G37*
%LPC*%
G36*
X86980Y34314D02*
X85704Y34060D01*
X84622Y33338D01*
X80642Y29358D01*
X79920Y28276D01*
X79666Y27000D01*
X79920Y25724D01*
X80642Y24643D01*
X81724Y23920D01*
X83000Y23666D01*
X84276Y23920D01*
X85358Y24643D01*
X89338Y28622D01*
X90060Y29704D01*
X90314Y30980D01*
X90060Y32256D01*
X89338Y33338D01*
X88256Y34060D01*
X86980Y34314D01*
D02*
G37*
%LPD*%
D13*
X83000Y27000D02*
X86980Y30980D01*
X314350Y182037D02*
X320313Y188000D01*
X314350Y182000D02*
Y182037D01*
X320313Y188000D02*
X321000D01*
X41000Y186064D02*
X42000Y187064D01*
X41000Y169400D02*
Y186064D01*
X42000Y187064D02*
Y188000D01*
X29000Y169400D02*
Y187000D01*
X29000Y187000D02*
X29000Y187000D01*
X22789Y163297D02*
X25086Y161000D01*
X22789Y163297D02*
Y165134D01*
X22127Y165796D02*
X22789Y165134D01*
X29020Y161000D02*
X41000D01*
X25086D02*
X29000D01*
X313200Y194700D02*
X318500Y200000D01*
X319000D01*
X312700Y194700D02*
X313200D01*
X22100Y319600D02*
X23000Y320500D01*
X9629Y315880D02*
X13349Y319600D01*
X22100D01*
X9629Y300391D02*
Y315880D01*
Y300391D02*
X16390Y293630D01*
Y227125D02*
Y293630D01*
X63920Y114770D02*
X66150Y117000D01*
X58770Y114770D02*
X63920D01*
X54000Y110000D02*
X58770Y114770D01*
X16390Y227125D02*
X46214Y197300D01*
X39000Y289064D02*
Y311671D01*
X31500Y319171D02*
X39000Y311671D01*
X37981Y288045D02*
X39000Y289064D01*
X33895Y283750D02*
X37981Y287836D01*
Y288045D01*
X157514Y244486D02*
Y245686D01*
X151700Y251500D02*
X157514Y245686D01*
Y244486D02*
X158000Y244000D01*
X168700Y251500D02*
X176000Y244200D01*
Y244000D02*
Y244200D01*
X186470Y308730D02*
X190700Y304500D01*
X223338Y267338D02*
X226338D01*
X201350Y301900D02*
X201700Y302250D01*
X106434Y246657D02*
X107370D01*
X82682Y241663D02*
X88370Y247350D01*
X78542Y243377D02*
X88632Y253467D01*
X118109D01*
X190226Y236650D02*
X198069Y244494D01*
X75280Y206005D02*
X78542Y209268D01*
X186200Y251000D02*
X194000D01*
X185700Y251500D02*
X186200Y251000D01*
X221690Y232510D02*
X226510D01*
X219700Y234500D02*
X221690Y232510D01*
X105740Y247350D02*
X106434Y246657D01*
X198069Y244494D02*
X230494D01*
X239000Y253000D01*
X88370Y247350D02*
X105740D01*
X118109Y253467D02*
X134925Y236650D01*
X226338Y267338D02*
X227000Y268000D01*
X56111Y201440D02*
X60676Y206005D01*
X75280D01*
X78542Y209268D02*
Y243377D01*
X57826Y197300D02*
X62391Y201865D01*
X134925Y236650D02*
X190226D01*
X62391Y201865D02*
X76995D01*
X47929Y201440D02*
X56111D01*
X82682Y207553D02*
Y241663D01*
X22750Y226619D02*
Y267750D01*
X46214Y197300D02*
X57826D01*
X210000Y254000D02*
X223338Y267338D01*
X76995Y201865D02*
X82682Y207553D01*
X91486Y240514D02*
X94686D01*
X91000Y241000D02*
X91486Y240514D01*
X94686D02*
X100700Y234500D01*
X22750Y226619D02*
X47929Y201440D01*
X195976Y325476D02*
X221800Y351300D01*
X45860Y304695D02*
X66641Y325476D01*
X195976D01*
X68356Y321336D02*
X217236D01*
X50000Y302980D02*
X68356Y321336D01*
X217236D02*
X247200Y351300D01*
X232260Y313685D02*
X258134D01*
X227930Y308730D02*
Y309354D01*
X232260Y313685D01*
X223700Y304500D02*
X227930Y308730D01*
X258134Y313685D02*
X271010Y300809D01*
X128470Y308730D02*
X132700Y304500D01*
Y302250D02*
Y304500D01*
X92000Y314526D02*
X123299D01*
X41833Y259006D02*
X45860Y263033D01*
X41833Y258070D02*
Y259006D01*
X45860Y263033D02*
Y304695D01*
X50000Y256606D02*
Y302980D01*
X83000Y310000D02*
X83200D01*
X88700Y304500D01*
X194447Y274378D02*
X214383D01*
X185245Y283580D02*
X194447Y274378D01*
X201350Y288350D02*
Y301900D01*
X201000Y288000D02*
X201350Y288350D01*
X187280Y266920D02*
X194000D01*
X185700Y268500D02*
X187280Y266920D01*
X184555Y311270D02*
X186470Y309354D01*
X174846Y311270D02*
X184555D01*
X190700Y302250D02*
Y304500D01*
X167000Y303424D02*
X174846Y311270D01*
X167000Y292000D02*
Y303424D01*
X186470Y308730D02*
Y309354D01*
X121700Y300000D02*
X125930Y295770D01*
Y295145D02*
Y295770D01*
X121700Y300000D02*
Y302250D01*
X125930Y295145D02*
X130115Y290960D01*
X130583D01*
X126496Y283580D02*
X185245D01*
X114930Y295145D02*
X126496Y283580D01*
X36000Y242606D02*
X50000Y256606D01*
X36000Y223000D02*
Y242606D01*
X145600Y335336D02*
Y352000D01*
Y335336D02*
X147000Y333936D01*
Y333000D02*
Y333936D01*
Y333000D02*
X155534D01*
X156344Y332190D01*
X165444D01*
X165540Y332286D01*
X297090Y325000D02*
X297600D01*
X292630Y320540D02*
X297090Y325000D01*
X292130Y320540D02*
X292630D01*
X264000Y203000D02*
Y218623D01*
X290921Y245544D01*
X321779D01*
X329244Y238079D01*
Y220244D02*
Y238079D01*
X312700Y207400D02*
X318638Y213338D01*
X110700Y300000D02*
Y302250D01*
Y300000D02*
X114930Y295770D01*
Y295145D02*
Y295770D01*
X312700Y220100D02*
X314350D01*
X318446Y224196D01*
X320064D01*
X325104Y229236D01*
Y236364D01*
X320064Y241404D02*
X325104Y236364D01*
X292636Y241404D02*
X320064D01*
X275000Y223768D02*
X292636Y241404D01*
X275000Y214000D02*
Y223768D01*
X312700Y182000D02*
X314350D01*
X53500Y27000D02*
X54000Y27500D01*
X60000Y104000D02*
X60486Y104486D01*
X66150Y117000D02*
X68400D01*
X66886Y104486D02*
X68400Y106000D01*
X60486Y104486D02*
X66886D01*
X88350Y82100D02*
X88700Y81750D01*
X88350Y82100D02*
Y90650D01*
X88000Y91000D02*
X88350Y90650D01*
X94686Y223514D02*
X100700Y217500D01*
X91486Y223514D02*
X94686D01*
X91000Y224000D02*
X91486Y223514D01*
X134000Y267800D02*
X134700Y268500D01*
X134000Y262000D02*
Y267800D01*
X134700Y115500D02*
X140514Y109686D01*
Y107486D02*
Y109686D01*
Y107486D02*
X141000Y107000D01*
X151000Y133200D02*
X151700Y132500D01*
X151000Y133200D02*
Y141000D01*
X151700Y268500D02*
X159000Y261200D01*
Y261000D02*
Y261200D01*
X152600Y114600D02*
X155430Y111770D01*
Y108257D02*
Y111770D01*
Y108257D02*
X156000Y107687D01*
Y107000D02*
Y107687D01*
X166000Y135200D02*
X168700Y132500D01*
X166000Y135200D02*
Y141000D01*
X168000Y114800D02*
X168700Y115500D01*
X168000Y107000D02*
Y114800D01*
X184000Y134200D02*
X185700Y132500D01*
X184000Y134200D02*
Y141000D01*
X185000Y114800D02*
X185700Y115500D01*
X185000Y107000D02*
Y114800D01*
X190350Y82100D02*
X190700Y81750D01*
X190350Y82100D02*
Y90650D01*
X190000Y91000D02*
X190350Y90650D01*
X198250Y29000D02*
X201700Y32450D01*
X201350Y82100D02*
X201700Y81750D01*
X201350Y82100D02*
Y90650D01*
X201000Y91000D02*
X201350Y90650D01*
X219700Y217500D02*
X220200Y217000D01*
X228000D01*
X223000Y77970D02*
X223700Y77270D01*
X223000Y77970D02*
Y78570D01*
X223350Y82100D02*
Y90650D01*
X223000Y91000D02*
X223350Y90650D01*
X234350Y82100D02*
X234700Y81750D01*
X234350Y82100D02*
Y90650D01*
X234000Y91000D02*
X234350Y90650D01*
X243000Y117000D02*
X252000D01*
X298834Y208566D02*
X300000Y207400D01*
X293121Y208566D02*
X298834D01*
X290687Y211000D02*
X293121Y208566D01*
X290000Y211000D02*
X290687D01*
X68250Y94850D02*
X68400Y95000D01*
X35000Y125090D02*
Y125600D01*
X32785Y122875D02*
X35000Y125090D01*
X30000Y122875D02*
X32785D01*
X11750Y125750D02*
X21560D01*
X23290Y124020D01*
X28855D01*
X30000Y122875D01*
X30000Y109000D02*
X30000Y109000D01*
Y122875D01*
X13000Y136250D02*
Y142000D01*
X20715Y149715D01*
X44815D01*
X56350Y161250D01*
X55000Y162600D02*
Y177000D01*
Y162600D02*
X56350Y161250D01*
X67700D01*
X68400Y161000D02*
X76000D01*
X66150Y268000D02*
X68400D01*
X61920Y263770D02*
X66150Y268000D01*
X61296Y263770D02*
X61920D01*
X54140Y256614D02*
X61296Y263770D01*
X54140Y251852D02*
Y256614D01*
X52692Y250404D02*
X54140Y251852D01*
X52692Y244388D02*
Y250404D01*
X52030Y243726D02*
X52692Y244388D01*
X264000Y172000D02*
X264687D01*
X267687Y169000D01*
X268000D01*
X252000Y277000D02*
X254250D01*
X258480Y272770D01*
X259230D01*
X265000Y267000D01*
X23000Y136250D02*
Y143060D01*
X25515Y145575D01*
X41430D01*
X48005Y139000D01*
X223700Y302250D02*
Y304500D01*
X271010Y291398D02*
Y300809D01*
X251300Y183250D02*
X251400Y183350D01*
X287275D01*
X288111Y182514D01*
X299486D02*
X300000Y182000D01*
X288111Y182514D02*
X299486D01*
X251300Y194250D02*
X251550Y194500D01*
X287500D01*
X288000Y195000D01*
X299850Y194850D02*
X300000Y194700D01*
X288150Y194850D02*
X299850D01*
X288000Y195000D02*
X288150Y194850D01*
X31500Y319171D02*
Y320500D01*
X68400Y150000D02*
X76000D01*
X66150Y257000D02*
X68400D01*
X61920Y252770D02*
X66150Y257000D01*
X61296Y252770D02*
X61920D01*
X58840Y250315D02*
X61296Y252770D01*
X58840Y214340D02*
Y250315D01*
X52750Y208250D02*
X58840Y214340D01*
X252000Y255000D02*
X252500Y255500D01*
X264500D01*
X265000Y256000D01*
X212700Y302250D02*
X213000Y301950D01*
Y294000D02*
Y301950D01*
Y294000D02*
X214488Y292512D01*
X238837D01*
X249115Y302790D01*
Y306213D01*
X249777Y306875D01*
X94862Y206338D02*
X100700Y200500D01*
X91662Y206338D02*
X94862D01*
X91000Y207000D02*
X91662Y206338D01*
X68400Y128000D02*
X76000D01*
X48005Y139000D02*
X76000D01*
X123299Y314526D02*
X128470Y309354D01*
X322338Y213338D02*
X329244Y220244D01*
X88700Y302250D02*
Y304500D01*
X128470Y308730D02*
Y309354D01*
X318638Y213338D02*
X322338D01*
X306000Y320000D02*
Y325000D01*
X35000Y134000D02*
Y138765D01*
X299850Y169150D02*
X300000Y169300D01*
X252000Y172000D02*
X252000Y172000D01*
D16*
X68250Y43250D02*
D03*
X213000D02*
D03*
D17*
X53500Y28000D02*
D03*
X83000D02*
D03*
X198250D02*
D03*
X227750D02*
D03*
D18*
X23000Y320500D02*
D03*
X31500D02*
D03*
X23000Y306000D02*
D03*
X31500D02*
D03*
X31250Y267750D02*
D03*
X22750D02*
D03*
X31250Y282250D02*
D03*
X22750D02*
D03*
D19*
X297600Y325000D02*
D03*
X306000D02*
D03*
D20*
X35000Y125600D02*
D03*
Y134000D02*
D03*
X29000Y169400D02*
D03*
Y161000D02*
D03*
X41000Y169400D02*
D03*
Y161000D02*
D03*
D21*
X13000Y136250D02*
D03*
Y125750D02*
D03*
X23000Y136250D02*
D03*
Y125750D02*
D03*
D22*
X300000Y169300D02*
D03*
Y182000D02*
D03*
Y194700D02*
D03*
Y207400D02*
D03*
Y220100D02*
D03*
X312700D02*
D03*
Y207400D02*
D03*
Y194700D02*
D03*
Y182000D02*
D03*
Y169300D02*
D03*
D23*
X17000Y352205D02*
D03*
Y373795D02*
D03*
D24*
X252000Y95000D02*
D03*
Y106000D02*
D03*
Y117000D02*
D03*
Y128000D02*
D03*
Y139000D02*
D03*
Y150000D02*
D03*
Y161000D02*
D03*
Y172000D02*
D03*
Y183000D02*
D03*
Y194000D02*
D03*
Y211000D02*
D03*
Y222000D02*
D03*
Y233000D02*
D03*
Y244000D02*
D03*
Y255000D02*
D03*
Y266000D02*
D03*
Y277000D02*
D03*
Y288000D02*
D03*
X68400Y290000D02*
D03*
Y279000D02*
D03*
Y268000D02*
D03*
Y257000D02*
D03*
Y246000D02*
D03*
Y235000D02*
D03*
Y224000D02*
D03*
Y213000D02*
D03*
Y194000D02*
D03*
Y183000D02*
D03*
Y172000D02*
D03*
Y161000D02*
D03*
Y150000D02*
D03*
Y139000D02*
D03*
Y128000D02*
D03*
Y117000D02*
D03*
Y106000D02*
D03*
Y95000D02*
D03*
D25*
X234700Y302250D02*
D03*
X223700D02*
D03*
X212700D02*
D03*
X201700D02*
D03*
X190700D02*
D03*
X179700D02*
D03*
X154700D02*
D03*
X143700D02*
D03*
X132700D02*
D03*
X121700D02*
D03*
X110700D02*
D03*
X99700D02*
D03*
X88700D02*
D03*
Y81750D02*
D03*
X99700D02*
D03*
X110700D02*
D03*
X121700D02*
D03*
X132700D02*
D03*
X143700D02*
D03*
X154700D02*
D03*
X179700D02*
D03*
X190700D02*
D03*
X201700D02*
D03*
X212700D02*
D03*
X223700D02*
D03*
X234700D02*
D03*
D26*
X219700Y149500D02*
D03*
Y166500D02*
D03*
Y183500D02*
D03*
Y200500D02*
D03*
Y217500D02*
D03*
Y234500D02*
D03*
X185700Y268500D02*
D03*
X168700D02*
D03*
X151700D02*
D03*
X134700D02*
D03*
X100700Y234500D02*
D03*
Y217500D02*
D03*
Y200500D02*
D03*
Y183500D02*
D03*
Y166500D02*
D03*
Y149500D02*
D03*
X134700Y115500D02*
D03*
X151700D02*
D03*
X168700D02*
D03*
X185700D02*
D03*
X202700Y149500D02*
D03*
Y166500D02*
D03*
Y183500D02*
D03*
Y200500D02*
D03*
Y217500D02*
D03*
Y234500D02*
D03*
X185700Y251500D02*
D03*
X168700D02*
D03*
X151700D02*
D03*
X134700D02*
D03*
X117700Y234500D02*
D03*
Y217500D02*
D03*
Y200500D02*
D03*
Y183500D02*
D03*
Y166500D02*
D03*
Y149500D02*
D03*
X134700Y132500D02*
D03*
X151700D02*
D03*
X168700D02*
D03*
X185700D02*
D03*
D42*
X212700Y42550D02*
X213000Y42250D01*
D43*
X212700Y42550D02*
Y81750D01*
X68250Y42250D02*
Y94850D01*
D44*
X79500Y336000D02*
X94800Y351300D01*
X31855Y336000D02*
X79500D01*
X17468Y350387D02*
X31855Y336000D01*
X17468Y375247D02*
X41848D01*
X44000Y377400D01*
X252000Y172000D02*
X264000D01*
X268000Y169000D02*
X291000D01*
X299715Y169015D02*
X299850Y169150D01*
X291015Y169015D02*
X299715D01*
X291000Y169000D02*
X291015Y169015D01*
D45*
X316500Y232800D02*
D03*
X296200D02*
D03*
X306350Y156600D02*
D03*
D46*
X94800Y376700D02*
D03*
Y351300D02*
D03*
X145600Y376700D02*
D03*
Y351300D02*
D03*
X221800Y376700D02*
D03*
Y351300D02*
D03*
X247200Y376700D02*
D03*
Y351300D02*
D03*
X298000Y376700D02*
D03*
X272600Y351300D02*
D03*
Y376700D02*
D03*
X196400Y351300D02*
D03*
Y376700D02*
D03*
X171000Y351300D02*
D03*
Y376700D02*
D03*
X120200Y351300D02*
D03*
Y376700D02*
D03*
X69400Y351300D02*
D03*
X44000D02*
D03*
X69400Y376700D02*
D03*
X44000D02*
D03*
D47*
X298000Y351300D02*
D03*
D48*
X22000Y23600D02*
D03*
X320000D02*
D03*
D49*
X22000Y49000D02*
D03*
Y74400D02*
D03*
X320000Y49000D02*
D03*
Y74400D02*
D03*
D50*
X187000Y18000D02*
D03*
X94000D02*
D03*
Y27000D02*
D03*
Y36000D02*
D03*
X187000Y27000D02*
D03*
Y36000D02*
D03*
X239000Y18000D02*
D03*
Y27000D02*
D03*
Y36000D02*
D03*
X42000Y18000D02*
D03*
Y27000D02*
D03*
Y36000D02*
D03*
X321000Y188000D02*
D03*
X319000Y200000D02*
D03*
X15979Y313250D02*
D03*
X54000Y110000D02*
D03*
X110000Y49000D02*
D03*
X98000D02*
D03*
X10040Y291000D02*
D03*
X158000Y244000D02*
D03*
X176000D02*
D03*
X194000Y251000D02*
D03*
X226510Y232510D02*
D03*
X91000Y241000D02*
D03*
X83000Y310000D02*
D03*
X39000Y275000D02*
D03*
X225025Y282586D02*
D03*
X194000Y266920D02*
D03*
X89000Y267000D02*
D03*
X306000Y320000D02*
D03*
X282000Y264000D02*
D03*
X269000Y237000D02*
D03*
X272000Y177000D02*
D03*
X268000Y143000D02*
D03*
X122000Y48000D02*
D03*
X141000Y107000D02*
D03*
X156000D02*
D03*
X168000D02*
D03*
X330000Y188000D02*
D03*
Y202000D02*
D03*
Y249000D02*
D03*
X259113Y303726D02*
D03*
X84097Y176114D02*
D03*
X174000Y263000D02*
D03*
X134000Y262000D02*
D03*
X122000Y72000D02*
D03*
X291000Y169000D02*
D03*
X275000Y202000D02*
D03*
X264000Y172000D02*
D03*
X288000Y183000D02*
D03*
X60000Y304000D02*
D03*
X290000Y211000D02*
D03*
X312700Y169300D02*
D03*
X68000Y297000D02*
D03*
X59434Y292186D02*
D03*
X91000Y224000D02*
D03*
X59000Y278000D02*
D03*
X159000Y261000D02*
D03*
X111000Y72000D02*
D03*
X103000Y98000D02*
D03*
X123000Y107000D02*
D03*
X111000D02*
D03*
X154000Y93000D02*
D03*
Y100000D02*
D03*
X133000Y72000D02*
D03*
X145000D02*
D03*
X88000Y91000D02*
D03*
X60000Y104000D02*
D03*
X76000Y128000D02*
D03*
Y139000D02*
D03*
Y150000D02*
D03*
Y161000D02*
D03*
X228000Y217000D02*
D03*
X151000Y141000D02*
D03*
X166000D02*
D03*
X184000D02*
D03*
X185000Y107000D02*
D03*
X243000Y117000D02*
D03*
X190000Y91000D02*
D03*
X201000D02*
D03*
X223000D02*
D03*
X234000D02*
D03*
X326000Y280000D02*
D03*
D51*
X42000Y188000D02*
D03*
X29000Y187000D02*
D03*
X22127Y165796D02*
D03*
X39000Y290000D02*
D03*
X227000Y268000D02*
D03*
X214383Y274378D02*
D03*
X210000Y254000D02*
D03*
X107370Y246657D02*
D03*
X92000Y314526D02*
D03*
X201000Y288000D02*
D03*
X167000Y292000D02*
D03*
X130583Y290960D02*
D03*
X134881Y283580D02*
D03*
X292130Y320540D02*
D03*
X265000Y267000D02*
D03*
X165540Y332286D02*
D03*
X147000Y333000D02*
D03*
X265000Y256000D02*
D03*
X35000Y138765D02*
D03*
X30000Y109000D02*
D03*
X323000Y214000D02*
D03*
X275000D02*
D03*
X264000Y203000D02*
D03*
X288000Y195000D02*
D03*
X239000Y253000D02*
D03*
X52750Y208250D02*
D03*
X52030Y243726D02*
D03*
X271010Y291398D02*
D03*
X41833Y258070D02*
D03*
X249777Y306875D02*
D03*
X36000Y223000D02*
D03*
X91000Y207000D02*
D03*
X55000Y177000D02*
D03*
M02*
