G04*
G04 #@! TF.GenerationSoftware,Altium Limited,Altium Designer,22.9.1 (49)*
G04*
G04 Layer_Color=32896*
%FSLAX44Y44*%
%MOMM*%
G71*
G04*
G04 #@! TF.SameCoordinates,160F3373-32AC-4E58-B31D-FCE43EB9D5FB*
G04*
G04*
G04 #@! TF.FilePolarity,Positive*
G04*
G01*
G75*
%ADD10C,0.2500*%
%ADD11C,0.2000*%
%ADD12C,0.1000*%
%ADD13C,0.2540*%
%ADD15C,0.1524*%
G36*
X24759Y390853D02*
X24855Y390845D01*
X24942Y390832D01*
X25025Y390812D01*
X25104Y390791D01*
X25175Y390766D01*
X25242Y390741D01*
X25300Y390716D01*
X25354Y390686D01*
X25400Y390662D01*
X25442Y390637D01*
X25475Y390616D01*
X25500Y390595D01*
X25517Y390582D01*
X25529Y390574D01*
X25533Y390570D01*
X25592Y390516D01*
X25642Y390453D01*
X25688Y390391D01*
X25729Y390320D01*
X25763Y390253D01*
X25796Y390187D01*
X25821Y390116D01*
X25842Y390053D01*
X25863Y389991D01*
X25875Y389933D01*
X25887Y389878D01*
X25896Y389833D01*
X25900Y389795D01*
X25904Y389770D01*
X25908Y389753D01*
Y389745D01*
X25425Y389695D01*
X25421Y389762D01*
X25417Y389824D01*
X25392Y389933D01*
X25359Y390033D01*
X25342Y390074D01*
X25321Y390112D01*
X25304Y390145D01*
X25284Y390174D01*
X25267Y390199D01*
X25254Y390220D01*
X25238Y390237D01*
X25229Y390249D01*
X25225Y390253D01*
X25221Y390257D01*
X25179Y390295D01*
X25138Y390328D01*
X25092Y390353D01*
X25046Y390378D01*
X24954Y390416D01*
X24867Y390441D01*
X24792Y390453D01*
X24759Y390462D01*
X24729D01*
X24704Y390466D01*
X24613D01*
X24555Y390457D01*
X24450Y390437D01*
X24363Y390403D01*
X24284Y390370D01*
X24225Y390332D01*
X24200Y390316D01*
X24180Y390299D01*
X24163Y390287D01*
X24151Y390278D01*
X24146Y390274D01*
X24142Y390270D01*
X24105Y390233D01*
X24076Y390195D01*
X24046Y390158D01*
X24025Y390116D01*
X23988Y390037D01*
X23963Y389962D01*
X23951Y389899D01*
X23942Y389870D01*
Y389845D01*
X23938Y389828D01*
Y389812D01*
Y389803D01*
Y389799D01*
X23942Y389749D01*
X23946Y389699D01*
X23971Y389599D01*
X24009Y389504D01*
X24051Y389416D01*
X24092Y389341D01*
X24109Y389312D01*
X24130Y389283D01*
X24142Y389262D01*
X24155Y389245D01*
X24159Y389237D01*
X24163Y389233D01*
X24209Y389174D01*
X24263Y389112D01*
X24325Y389045D01*
X24392Y388979D01*
X24530Y388841D01*
X24671Y388712D01*
X24738Y388650D01*
X24804Y388595D01*
X24863Y388545D01*
X24913Y388504D01*
X24954Y388466D01*
X24984Y388441D01*
X25004Y388420D01*
X25013Y388416D01*
X25088Y388354D01*
X25154Y388296D01*
X25221Y388241D01*
X25279Y388187D01*
X25338Y388137D01*
X25388Y388087D01*
X25433Y388046D01*
X25475Y388004D01*
X25513Y387966D01*
X25542Y387933D01*
X25571Y387904D01*
X25592Y387883D01*
X25613Y387862D01*
X25625Y387850D01*
X25629Y387841D01*
X25633Y387837D01*
X25708Y387746D01*
X25771Y387654D01*
X25825Y387566D01*
X25867Y387487D01*
X25900Y387421D01*
X25912Y387392D01*
X25925Y387371D01*
X25933Y387350D01*
X25938Y387337D01*
X25942Y387329D01*
Y387325D01*
X25963Y387267D01*
X25975Y387208D01*
X25988Y387154D01*
X25992Y387104D01*
X25996Y387062D01*
Y387029D01*
Y387008D01*
Y387000D01*
X23451D01*
Y387454D01*
X25346D01*
X25279Y387546D01*
X25246Y387587D01*
X25213Y387625D01*
X25183Y387658D01*
X25163Y387683D01*
X25146Y387700D01*
X25142Y387704D01*
X25117Y387729D01*
X25084Y387762D01*
X25046Y387796D01*
X25004Y387833D01*
X24917Y387916D01*
X24825Y387996D01*
X24738Y388070D01*
X24700Y388104D01*
X24663Y388133D01*
X24638Y388158D01*
X24613Y388175D01*
X24600Y388187D01*
X24596Y388191D01*
X24504Y388270D01*
X24417Y388345D01*
X24338Y388412D01*
X24267Y388479D01*
X24200Y388537D01*
X24142Y388595D01*
X24088Y388645D01*
X24038Y388691D01*
X23996Y388729D01*
X23963Y388766D01*
X23934Y388795D01*
X23909Y388820D01*
X23892Y388841D01*
X23876Y388854D01*
X23871Y388862D01*
X23867Y388866D01*
X23788Y388958D01*
X23726Y389041D01*
X23671Y389120D01*
X23626Y389191D01*
X23592Y389249D01*
X23567Y389295D01*
X23559Y389312D01*
X23555Y389324D01*
X23551Y389329D01*
Y389333D01*
X23517Y389416D01*
X23496Y389499D01*
X23480Y389574D01*
X23467Y389645D01*
X23459Y389703D01*
X23455Y389749D01*
Y389766D01*
Y389778D01*
Y389783D01*
Y389787D01*
X23459Y389870D01*
X23467Y389949D01*
X23484Y390024D01*
X23505Y390099D01*
X23530Y390166D01*
X23559Y390228D01*
X23588Y390287D01*
X23617Y390337D01*
X23646Y390387D01*
X23676Y390428D01*
X23705Y390466D01*
X23730Y390495D01*
X23751Y390516D01*
X23767Y390537D01*
X23776Y390545D01*
X23780Y390549D01*
X23842Y390603D01*
X23909Y390649D01*
X23980Y390691D01*
X24055Y390728D01*
X24125Y390757D01*
X24200Y390782D01*
X24271Y390803D01*
X24342Y390820D01*
X24405Y390832D01*
X24467Y390841D01*
X24521Y390849D01*
X24567Y390853D01*
X24604Y390857D01*
X24659D01*
X24759Y390853D01*
D02*
G37*
G36*
X21772D02*
X21868Y390845D01*
X21955Y390832D01*
X22039Y390812D01*
X22118Y390791D01*
X22188Y390766D01*
X22255Y390741D01*
X22313Y390716D01*
X22368Y390686D01*
X22413Y390662D01*
X22455Y390637D01*
X22488Y390616D01*
X22513Y390595D01*
X22530Y390582D01*
X22543Y390574D01*
X22547Y390570D01*
X22605Y390516D01*
X22655Y390453D01*
X22701Y390391D01*
X22743Y390320D01*
X22776Y390253D01*
X22809Y390187D01*
X22834Y390116D01*
X22855Y390053D01*
X22876Y389991D01*
X22888Y389933D01*
X22901Y389878D01*
X22909Y389833D01*
X22913Y389795D01*
X22917Y389770D01*
X22922Y389753D01*
Y389745D01*
X22438Y389695D01*
X22434Y389762D01*
X22430Y389824D01*
X22405Y389933D01*
X22372Y390033D01*
X22355Y390074D01*
X22334Y390112D01*
X22318Y390145D01*
X22297Y390174D01*
X22280Y390199D01*
X22268Y390220D01*
X22251Y390237D01*
X22243Y390249D01*
X22239Y390253D01*
X22234Y390257D01*
X22193Y390295D01*
X22151Y390328D01*
X22105Y390353D01*
X22059Y390378D01*
X21968Y390416D01*
X21880Y390441D01*
X21805Y390453D01*
X21772Y390462D01*
X21743D01*
X21718Y390466D01*
X21626D01*
X21568Y390457D01*
X21464Y390437D01*
X21376Y390403D01*
X21297Y390370D01*
X21239Y390332D01*
X21214Y390316D01*
X21193Y390299D01*
X21176Y390287D01*
X21164Y390278D01*
X21160Y390274D01*
X21155Y390270D01*
X21118Y390233D01*
X21089Y390195D01*
X21060Y390158D01*
X21039Y390116D01*
X21001Y390037D01*
X20976Y389962D01*
X20964Y389899D01*
X20956Y389870D01*
Y389845D01*
X20951Y389828D01*
Y389812D01*
Y389803D01*
Y389799D01*
X20956Y389749D01*
X20960Y389699D01*
X20985Y389599D01*
X21022Y389504D01*
X21064Y389416D01*
X21105Y389341D01*
X21122Y389312D01*
X21143Y389283D01*
X21155Y389262D01*
X21168Y389245D01*
X21172Y389237D01*
X21176Y389233D01*
X21222Y389174D01*
X21276Y389112D01*
X21339Y389045D01*
X21405Y388979D01*
X21543Y388841D01*
X21684Y388712D01*
X21751Y388650D01*
X21818Y388595D01*
X21876Y388545D01*
X21926Y388504D01*
X21968Y388466D01*
X21997Y388441D01*
X22018Y388420D01*
X22026Y388416D01*
X22101Y388354D01*
X22168Y388296D01*
X22234Y388241D01*
X22293Y388187D01*
X22351Y388137D01*
X22401Y388087D01*
X22447Y388046D01*
X22488Y388004D01*
X22526Y387966D01*
X22555Y387933D01*
X22584Y387904D01*
X22605Y387883D01*
X22626Y387862D01*
X22638Y387850D01*
X22643Y387841D01*
X22647Y387837D01*
X22722Y387746D01*
X22784Y387654D01*
X22838Y387566D01*
X22880Y387487D01*
X22913Y387421D01*
X22926Y387392D01*
X22938Y387371D01*
X22947Y387350D01*
X22951Y387337D01*
X22955Y387329D01*
Y387325D01*
X22976Y387267D01*
X22988Y387208D01*
X23001Y387154D01*
X23005Y387104D01*
X23009Y387062D01*
Y387029D01*
Y387008D01*
Y387000D01*
X20464D01*
Y387454D01*
X22359D01*
X22293Y387546D01*
X22259Y387587D01*
X22226Y387625D01*
X22197Y387658D01*
X22176Y387683D01*
X22159Y387700D01*
X22155Y387704D01*
X22130Y387729D01*
X22097Y387762D01*
X22059Y387796D01*
X22018Y387833D01*
X21930Y387916D01*
X21839Y387996D01*
X21751Y388070D01*
X21714Y388104D01*
X21676Y388133D01*
X21651Y388158D01*
X21626Y388175D01*
X21614Y388187D01*
X21609Y388191D01*
X21518Y388270D01*
X21430Y388345D01*
X21351Y388412D01*
X21280Y388479D01*
X21214Y388537D01*
X21155Y388595D01*
X21101Y388645D01*
X21051Y388691D01*
X21010Y388729D01*
X20976Y388766D01*
X20947Y388795D01*
X20922Y388820D01*
X20905Y388841D01*
X20889Y388854D01*
X20885Y388862D01*
X20880Y388866D01*
X20801Y388958D01*
X20739Y389041D01*
X20685Y389120D01*
X20639Y389191D01*
X20605Y389249D01*
X20581Y389295D01*
X20572Y389312D01*
X20568Y389324D01*
X20564Y389329D01*
Y389333D01*
X20531Y389416D01*
X20510Y389499D01*
X20493Y389574D01*
X20481Y389645D01*
X20472Y389703D01*
X20468Y389749D01*
Y389766D01*
Y389778D01*
Y389783D01*
Y389787D01*
X20472Y389870D01*
X20481Y389949D01*
X20497Y390024D01*
X20518Y390099D01*
X20543Y390166D01*
X20572Y390228D01*
X20601Y390287D01*
X20631Y390337D01*
X20660Y390387D01*
X20689Y390428D01*
X20718Y390466D01*
X20743Y390495D01*
X20764Y390516D01*
X20780Y390537D01*
X20789Y390545D01*
X20793Y390549D01*
X20856Y390603D01*
X20922Y390649D01*
X20993Y390691D01*
X21068Y390728D01*
X21139Y390757D01*
X21214Y390782D01*
X21284Y390803D01*
X21355Y390820D01*
X21418Y390832D01*
X21480Y390841D01*
X21535Y390849D01*
X21580Y390853D01*
X21618Y390857D01*
X21672D01*
X21772Y390853D01*
D02*
G37*
G36*
X27759Y335853D02*
X27854Y335845D01*
X27942Y335832D01*
X28025Y335812D01*
X28104Y335791D01*
X28175Y335766D01*
X28242Y335741D01*
X28300Y335716D01*
X28354Y335687D01*
X28400Y335662D01*
X28442Y335637D01*
X28475Y335616D01*
X28500Y335595D01*
X28517Y335582D01*
X28529Y335574D01*
X28533Y335570D01*
X28592Y335516D01*
X28642Y335453D01*
X28688Y335391D01*
X28729Y335320D01*
X28763Y335253D01*
X28796Y335187D01*
X28821Y335116D01*
X28842Y335053D01*
X28863Y334991D01*
X28875Y334933D01*
X28888Y334878D01*
X28896Y334833D01*
X28900Y334795D01*
X28904Y334770D01*
X28908Y334753D01*
Y334745D01*
X28425Y334695D01*
X28421Y334762D01*
X28417Y334824D01*
X28392Y334933D01*
X28359Y335033D01*
X28342Y335074D01*
X28321Y335112D01*
X28304Y335145D01*
X28284Y335174D01*
X28267Y335199D01*
X28254Y335220D01*
X28238Y335237D01*
X28229Y335249D01*
X28225Y335253D01*
X28221Y335257D01*
X28179Y335295D01*
X28138Y335328D01*
X28092Y335353D01*
X28046Y335378D01*
X27954Y335416D01*
X27867Y335441D01*
X27792Y335453D01*
X27759Y335462D01*
X27729D01*
X27705Y335466D01*
X27613D01*
X27555Y335457D01*
X27450Y335437D01*
X27363Y335403D01*
X27284Y335370D01*
X27225Y335332D01*
X27201Y335316D01*
X27180Y335299D01*
X27163Y335287D01*
X27150Y335278D01*
X27146Y335274D01*
X27142Y335270D01*
X27105Y335233D01*
X27076Y335195D01*
X27046Y335158D01*
X27025Y335116D01*
X26988Y335037D01*
X26963Y334962D01*
X26951Y334899D01*
X26942Y334870D01*
Y334845D01*
X26938Y334828D01*
Y334812D01*
Y334803D01*
Y334799D01*
X26942Y334749D01*
X26946Y334699D01*
X26971Y334599D01*
X27009Y334504D01*
X27050Y334416D01*
X27092Y334341D01*
X27109Y334312D01*
X27130Y334283D01*
X27142Y334262D01*
X27155Y334245D01*
X27159Y334237D01*
X27163Y334233D01*
X27209Y334174D01*
X27263Y334112D01*
X27325Y334045D01*
X27392Y333979D01*
X27529Y333841D01*
X27671Y333712D01*
X27738Y333650D01*
X27805Y333595D01*
X27863Y333545D01*
X27913Y333504D01*
X27954Y333466D01*
X27984Y333441D01*
X28004Y333420D01*
X28013Y333416D01*
X28088Y333354D01*
X28154Y333296D01*
X28221Y333241D01*
X28279Y333187D01*
X28338Y333137D01*
X28388Y333087D01*
X28433Y333046D01*
X28475Y333004D01*
X28513Y332966D01*
X28542Y332933D01*
X28571Y332904D01*
X28592Y332883D01*
X28613Y332862D01*
X28625Y332850D01*
X28629Y332841D01*
X28633Y332837D01*
X28708Y332746D01*
X28771Y332654D01*
X28825Y332566D01*
X28867Y332487D01*
X28900Y332421D01*
X28912Y332392D01*
X28925Y332371D01*
X28933Y332350D01*
X28937Y332337D01*
X28942Y332329D01*
Y332325D01*
X28963Y332267D01*
X28975Y332208D01*
X28988Y332154D01*
X28992Y332104D01*
X28996Y332062D01*
Y332029D01*
Y332008D01*
Y332000D01*
X26451D01*
Y332454D01*
X28346D01*
X28279Y332546D01*
X28246Y332587D01*
X28213Y332625D01*
X28184Y332658D01*
X28163Y332683D01*
X28146Y332700D01*
X28142Y332704D01*
X28117Y332729D01*
X28084Y332762D01*
X28046Y332796D01*
X28004Y332833D01*
X27917Y332916D01*
X27825Y332996D01*
X27738Y333071D01*
X27700Y333104D01*
X27663Y333133D01*
X27638Y333158D01*
X27613Y333175D01*
X27600Y333187D01*
X27596Y333191D01*
X27504Y333270D01*
X27417Y333345D01*
X27338Y333412D01*
X27267Y333479D01*
X27201Y333537D01*
X27142Y333595D01*
X27088Y333645D01*
X27038Y333691D01*
X26996Y333729D01*
X26963Y333766D01*
X26934Y333795D01*
X26909Y333820D01*
X26892Y333841D01*
X26876Y333854D01*
X26871Y333862D01*
X26867Y333866D01*
X26788Y333958D01*
X26726Y334041D01*
X26671Y334120D01*
X26626Y334191D01*
X26592Y334249D01*
X26567Y334295D01*
X26559Y334312D01*
X26555Y334324D01*
X26551Y334329D01*
Y334333D01*
X26517Y334416D01*
X26497Y334499D01*
X26480Y334574D01*
X26467Y334645D01*
X26459Y334703D01*
X26455Y334749D01*
Y334766D01*
Y334779D01*
Y334783D01*
Y334787D01*
X26459Y334870D01*
X26467Y334949D01*
X26484Y335024D01*
X26505Y335099D01*
X26530Y335166D01*
X26559Y335228D01*
X26588Y335287D01*
X26617Y335337D01*
X26646Y335387D01*
X26676Y335428D01*
X26705Y335466D01*
X26730Y335495D01*
X26751Y335516D01*
X26767Y335537D01*
X26776Y335545D01*
X26780Y335549D01*
X26842Y335603D01*
X26909Y335649D01*
X26980Y335691D01*
X27055Y335728D01*
X27125Y335757D01*
X27201Y335782D01*
X27271Y335803D01*
X27342Y335820D01*
X27405Y335832D01*
X27467Y335841D01*
X27521Y335849D01*
X27567Y335853D01*
X27604Y335857D01*
X27659D01*
X27759Y335853D01*
D02*
G37*
G36*
X24526Y335761D02*
X24589Y335670D01*
X24659Y335582D01*
X24730Y335507D01*
X24793Y335437D01*
X24822Y335412D01*
X24843Y335387D01*
X24864Y335366D01*
X24880Y335353D01*
X24889Y335345D01*
X24893Y335341D01*
X25005Y335245D01*
X25126Y335162D01*
X25243Y335083D01*
X25351Y335016D01*
X25397Y334991D01*
X25443Y334966D01*
X25484Y334941D01*
X25518Y334924D01*
X25547Y334912D01*
X25568Y334899D01*
X25580Y334895D01*
X25584Y334891D01*
Y334437D01*
X25501Y334470D01*
X25413Y334508D01*
X25330Y334549D01*
X25255Y334587D01*
X25189Y334624D01*
X25159Y334637D01*
X25134Y334654D01*
X25113Y334662D01*
X25101Y334670D01*
X25093Y334678D01*
X25089D01*
X24989Y334741D01*
X24901Y334799D01*
X24822Y334853D01*
X24759Y334903D01*
X24705Y334945D01*
X24668Y334974D01*
X24647Y334995D01*
X24639Y335003D01*
Y332000D01*
X24168D01*
Y335857D01*
X24472D01*
X24526Y335761D01*
D02*
G37*
G36*
X321059Y376853D02*
X321155Y376845D01*
X321242Y376832D01*
X321325Y376811D01*
X321404Y376791D01*
X321475Y376766D01*
X321542Y376741D01*
X321600Y376716D01*
X321654Y376687D01*
X321700Y376662D01*
X321742Y376637D01*
X321775Y376616D01*
X321800Y376595D01*
X321817Y376582D01*
X321829Y376574D01*
X321833Y376570D01*
X321892Y376516D01*
X321942Y376453D01*
X321988Y376391D01*
X322029Y376320D01*
X322063Y376253D01*
X322096Y376187D01*
X322121Y376116D01*
X322142Y376053D01*
X322163Y375991D01*
X322175Y375933D01*
X322188Y375878D01*
X322196Y375833D01*
X322200Y375795D01*
X322204Y375770D01*
X322208Y375754D01*
Y375745D01*
X321725Y375695D01*
X321721Y375762D01*
X321717Y375824D01*
X321692Y375933D01*
X321659Y376033D01*
X321642Y376074D01*
X321621Y376112D01*
X321604Y376145D01*
X321584Y376174D01*
X321567Y376199D01*
X321554Y376220D01*
X321538Y376237D01*
X321529Y376249D01*
X321525Y376253D01*
X321521Y376258D01*
X321479Y376295D01*
X321438Y376328D01*
X321392Y376353D01*
X321346Y376378D01*
X321254Y376416D01*
X321167Y376441D01*
X321092Y376453D01*
X321059Y376462D01*
X321030D01*
X321004Y376466D01*
X320913D01*
X320854Y376457D01*
X320750Y376437D01*
X320663Y376403D01*
X320584Y376370D01*
X320525Y376333D01*
X320500Y376316D01*
X320480Y376299D01*
X320463Y376287D01*
X320451Y376278D01*
X320446Y376274D01*
X320442Y376270D01*
X320405Y376232D01*
X320376Y376195D01*
X320346Y376157D01*
X320326Y376116D01*
X320288Y376037D01*
X320263Y375962D01*
X320251Y375899D01*
X320242Y375870D01*
Y375845D01*
X320238Y375829D01*
Y375812D01*
Y375803D01*
Y375799D01*
X320242Y375749D01*
X320246Y375699D01*
X320271Y375599D01*
X320309Y375504D01*
X320350Y375416D01*
X320392Y375341D01*
X320409Y375312D01*
X320430Y375283D01*
X320442Y375262D01*
X320455Y375245D01*
X320459Y375237D01*
X320463Y375233D01*
X320509Y375174D01*
X320563Y375112D01*
X320625Y375045D01*
X320692Y374979D01*
X320830Y374841D01*
X320971Y374712D01*
X321038Y374650D01*
X321105Y374595D01*
X321163Y374546D01*
X321213Y374504D01*
X321254Y374466D01*
X321284Y374441D01*
X321304Y374421D01*
X321313Y374416D01*
X321388Y374354D01*
X321454Y374296D01*
X321521Y374241D01*
X321579Y374187D01*
X321638Y374137D01*
X321688Y374087D01*
X321734Y374046D01*
X321775Y374004D01*
X321813Y373966D01*
X321842Y373933D01*
X321871Y373904D01*
X321892Y373883D01*
X321913Y373862D01*
X321925Y373850D01*
X321929Y373842D01*
X321933Y373837D01*
X322008Y373746D01*
X322071Y373654D01*
X322125Y373567D01*
X322167Y373487D01*
X322200Y373421D01*
X322212Y373392D01*
X322225Y373371D01*
X322233Y373350D01*
X322238Y373337D01*
X322242Y373329D01*
Y373325D01*
X322262Y373267D01*
X322275Y373208D01*
X322287Y373154D01*
X322292Y373104D01*
X322296Y373063D01*
Y373029D01*
Y373008D01*
Y373000D01*
X319751D01*
Y373454D01*
X321646D01*
X321579Y373546D01*
X321546Y373587D01*
X321513Y373625D01*
X321483Y373658D01*
X321463Y373683D01*
X321446Y373700D01*
X321442Y373704D01*
X321417Y373729D01*
X321384Y373762D01*
X321346Y373796D01*
X321304Y373833D01*
X321217Y373916D01*
X321125Y373996D01*
X321038Y374071D01*
X321000Y374104D01*
X320963Y374133D01*
X320938Y374158D01*
X320913Y374175D01*
X320900Y374187D01*
X320896Y374191D01*
X320804Y374271D01*
X320717Y374346D01*
X320638Y374412D01*
X320567Y374479D01*
X320500Y374537D01*
X320442Y374595D01*
X320388Y374645D01*
X320338Y374691D01*
X320296Y374729D01*
X320263Y374766D01*
X320234Y374795D01*
X320209Y374820D01*
X320192Y374841D01*
X320176Y374854D01*
X320171Y374862D01*
X320167Y374866D01*
X320088Y374958D01*
X320026Y375041D01*
X319971Y375120D01*
X319926Y375191D01*
X319892Y375249D01*
X319867Y375295D01*
X319859Y375312D01*
X319855Y375324D01*
X319851Y375329D01*
Y375333D01*
X319817Y375416D01*
X319797Y375499D01*
X319780Y375574D01*
X319767Y375645D01*
X319759Y375704D01*
X319755Y375749D01*
Y375766D01*
Y375779D01*
Y375783D01*
Y375787D01*
X319759Y375870D01*
X319767Y375949D01*
X319784Y376024D01*
X319805Y376099D01*
X319830Y376166D01*
X319859Y376228D01*
X319888Y376287D01*
X319917Y376337D01*
X319946Y376387D01*
X319976Y376428D01*
X320005Y376466D01*
X320030Y376495D01*
X320051Y376516D01*
X320067Y376537D01*
X320076Y376545D01*
X320080Y376549D01*
X320142Y376603D01*
X320209Y376649D01*
X320280Y376691D01*
X320355Y376728D01*
X320425Y376757D01*
X320500Y376782D01*
X320571Y376803D01*
X320642Y376820D01*
X320705Y376832D01*
X320767Y376841D01*
X320821Y376849D01*
X320867Y376853D01*
X320905Y376857D01*
X320959D01*
X321059Y376853D01*
D02*
G37*
G36*
X318242Y349762D02*
X318304Y349670D01*
X318375Y349582D01*
X318446Y349507D01*
X318508Y349437D01*
X318538Y349412D01*
X318559Y349387D01*
X318579Y349366D01*
X318596Y349353D01*
X318604Y349345D01*
X318608Y349341D01*
X318721Y349245D01*
X318842Y349162D01*
X318958Y349083D01*
X319067Y349016D01*
X319112Y348991D01*
X319158Y348966D01*
X319200Y348941D01*
X319233Y348924D01*
X319263Y348912D01*
X319283Y348899D01*
X319296Y348895D01*
X319300Y348891D01*
Y348437D01*
X319217Y348470D01*
X319129Y348508D01*
X319046Y348549D01*
X318971Y348587D01*
X318904Y348624D01*
X318875Y348637D01*
X318850Y348653D01*
X318829Y348662D01*
X318817Y348670D01*
X318808Y348679D01*
X318804D01*
X318704Y348741D01*
X318617Y348799D01*
X318538Y348853D01*
X318475Y348903D01*
X318421Y348945D01*
X318384Y348974D01*
X318363Y348995D01*
X318354Y349003D01*
Y346000D01*
X317884D01*
Y349857D01*
X318188D01*
X318242Y349762D01*
D02*
G37*
D10*
X63550Y114500D02*
G03*
X63550Y114500I-1250J0D01*
G01*
D11*
X295398Y277000D02*
X299629D01*
X295398D02*
Y284860D01*
Y306000D02*
X299629D01*
X308398Y288640D02*
Y294360D01*
X295398Y298140D02*
Y306000D01*
X21500Y263640D02*
Y271500D01*
X34500Y254140D02*
Y259860D01*
X21500Y271500D02*
X25731D01*
X21500Y242500D02*
Y250360D01*
Y242500D02*
X25731D01*
X21500Y229140D02*
Y237000D01*
X34500Y219640D02*
Y225360D01*
X21500Y237000D02*
X25731D01*
X21500Y208000D02*
Y215860D01*
Y208000D02*
X25731D01*
X208640Y307000D02*
X216500D01*
X199140Y294000D02*
X204860D01*
X216500Y302769D02*
Y307000D01*
X187500D02*
X195360D01*
X187500Y302769D02*
Y307000D01*
X174640D02*
X182500D01*
X165140Y294000D02*
X170860D01*
X182500Y302769D02*
Y307000D01*
X153500D02*
X161360D01*
X153500Y302769D02*
Y307000D01*
X141640D02*
X149500D01*
X132140Y294000D02*
X137860D01*
X149500Y302769D02*
Y307000D01*
X120500D02*
X128360D01*
X120500Y302769D02*
Y307000D01*
X108640D02*
X116500D01*
X99140Y294000D02*
X104860D01*
X116500Y302769D02*
Y307000D01*
X87500D02*
X95360D01*
X87500Y302769D02*
Y307000D01*
X241640D02*
X249500D01*
X232140Y294000D02*
X237860D01*
X249500Y302769D02*
Y307000D01*
X220500D02*
X228360D01*
X220500Y302769D02*
Y307000D01*
X273640D02*
X281500D01*
X264140Y294000D02*
X269860D01*
X281500Y302769D02*
Y307000D01*
X252500D02*
X260360D01*
X252500Y302769D02*
Y307000D01*
X295398Y264140D02*
Y272000D01*
X308398Y254640D02*
Y260360D01*
X295398Y272000D02*
X299629D01*
X295398Y243000D02*
Y250860D01*
Y243000D02*
X299629D01*
X16000Y292000D02*
X48000D01*
X16000Y308000D02*
X54000D01*
X112000Y104000D02*
X144000D01*
X106000Y88000D02*
X144000D01*
X29800Y337850D02*
Y390150D01*
X312200D01*
X29800Y337850D02*
X312200D01*
Y390150D01*
X8550Y88600D02*
X35450D01*
Y9400D02*
Y88600D01*
X8550Y9400D02*
X35450D01*
X8550D02*
Y88600D01*
X306550D02*
X333450D01*
Y9400D02*
Y88600D01*
X306550Y9400D02*
X333450D01*
X306550D02*
Y88600D01*
D12*
X323500Y189750D02*
G03*
X323500Y189750I-500J0D01*
G01*
Y202750D02*
G03*
X323500Y202750I-500J0D01*
G01*
X288500Y205650D02*
G03*
X288500Y205650I-500J0D01*
G01*
Y183250D02*
G03*
X288500Y183250I-500J0D01*
G01*
X323300Y176750D02*
G03*
X323300Y176750I-500J0D01*
G01*
X79500Y165750D02*
G03*
X79500Y165750I-500J0D01*
G01*
D13*
X59940Y306350D02*
G03*
X59940Y306350I-1270J0D01*
G01*
X102600Y89650D02*
G03*
X102600Y89650I-1270J0D01*
G01*
X269920Y171035D02*
G03*
X269920Y171035I-1270J0D01*
G01*
X24620Y347760D02*
G03*
X24620Y347760I-1270J0D01*
G01*
D15*
X266872Y145508D02*
X269641D01*
X283128D02*
Y166082D01*
X280359Y145508D02*
X283128D01*
X266872D02*
Y166082D01*
X269641D01*
X280359D02*
X283128D01*
X22359Y373287D02*
X25128D01*
X8872Y352713D02*
Y373287D01*
X11641D01*
X25128Y352713D02*
Y373287D01*
X22359Y352713D02*
X25128D01*
X8872D02*
X11641D01*
M02*
