G04*
G04 #@! TF.GenerationSoftware,Altium Limited,Altium Designer,22.9.1 (49)*
G04*
G04 Layer_Color=8388736*
%FSLAX44Y44*%
%MOMM*%
G71*
G04*
G04 #@! TF.SameCoordinates,160F3373-32AC-4E58-B31D-FCE43EB9D5FB*
G04*
G04*
G04 #@! TF.FilePolarity,Negative*
G04*
G01*
G75*
%ADD21R,0.6000X0.6000*%
%ADD23R,0.4064X0.8636*%
%ADD27R,1.1000X1.1500*%
%ADD28R,1.1500X2.3000*%
%ADD29R,0.6400X0.9500*%
%ADD30R,0.4600X0.3500*%
%ADD31R,0.3500X0.4600*%
%ADD32C,0.9636*%
%ADD33R,1.2500X0.8000*%
%ADD34R,0.8000X1.2500*%
%ADD35R,1.1000X1.1000*%
%ADD36C,1.1668*%
%ADD37C,1.7500*%
%ADD38R,1.7500X1.7500*%
%ADD39R,1.7000X1.7000*%
%ADD40C,1.7000*%
%ADD41C,0.6080*%
D21*
X13000Y136250D02*
D03*
Y125750D02*
D03*
X23000Y136250D02*
D03*
Y125750D02*
D03*
D23*
X17000Y352205D02*
D03*
Y373795D02*
D03*
D27*
X68250Y43250D02*
D03*
X213000D02*
D03*
D28*
X53500Y28000D02*
D03*
X83000D02*
D03*
X198250D02*
D03*
X227750D02*
D03*
D29*
X23000Y320500D02*
D03*
X31500D02*
D03*
X23000Y306000D02*
D03*
X31500D02*
D03*
X31250Y267750D02*
D03*
X22750D02*
D03*
X31250Y282250D02*
D03*
X22750D02*
D03*
D30*
X297600Y325000D02*
D03*
X306000D02*
D03*
D31*
X35000Y125600D02*
D03*
Y134000D02*
D03*
X29000Y169400D02*
D03*
Y161000D02*
D03*
X41000Y169400D02*
D03*
Y161000D02*
D03*
D32*
X300000Y169300D02*
D03*
Y182000D02*
D03*
Y194700D02*
D03*
Y207400D02*
D03*
Y220100D02*
D03*
X312700D02*
D03*
Y207400D02*
D03*
Y194700D02*
D03*
Y182000D02*
D03*
Y169300D02*
D03*
D33*
X252000Y95000D02*
D03*
Y106000D02*
D03*
Y117000D02*
D03*
Y128000D02*
D03*
Y139000D02*
D03*
Y150000D02*
D03*
Y161000D02*
D03*
Y172000D02*
D03*
Y183000D02*
D03*
Y194000D02*
D03*
Y211000D02*
D03*
Y222000D02*
D03*
Y233000D02*
D03*
Y244000D02*
D03*
Y255000D02*
D03*
Y266000D02*
D03*
Y277000D02*
D03*
Y288000D02*
D03*
X68400Y290000D02*
D03*
Y279000D02*
D03*
Y268000D02*
D03*
Y257000D02*
D03*
Y246000D02*
D03*
Y235000D02*
D03*
Y224000D02*
D03*
Y213000D02*
D03*
Y194000D02*
D03*
Y183000D02*
D03*
Y172000D02*
D03*
Y161000D02*
D03*
Y150000D02*
D03*
Y139000D02*
D03*
Y128000D02*
D03*
Y117000D02*
D03*
Y106000D02*
D03*
Y95000D02*
D03*
D34*
X234700Y302250D02*
D03*
X223700D02*
D03*
X212700D02*
D03*
X201700D02*
D03*
X190700D02*
D03*
X179700D02*
D03*
X154700D02*
D03*
X143700D02*
D03*
X132700D02*
D03*
X121700D02*
D03*
X110700D02*
D03*
X99700D02*
D03*
X88700D02*
D03*
Y81750D02*
D03*
X99700D02*
D03*
X110700D02*
D03*
X121700D02*
D03*
X132700D02*
D03*
X143700D02*
D03*
X154700D02*
D03*
X179700D02*
D03*
X190700D02*
D03*
X201700D02*
D03*
X212700D02*
D03*
X223700D02*
D03*
X234700D02*
D03*
D35*
X219700Y149500D02*
D03*
Y166500D02*
D03*
Y183500D02*
D03*
Y200500D02*
D03*
Y217500D02*
D03*
Y234500D02*
D03*
X185700Y268500D02*
D03*
X168700D02*
D03*
X151700D02*
D03*
X134700D02*
D03*
X100700Y234500D02*
D03*
Y217500D02*
D03*
Y200500D02*
D03*
Y183500D02*
D03*
Y166500D02*
D03*
Y149500D02*
D03*
X134700Y115500D02*
D03*
X151700D02*
D03*
X168700D02*
D03*
X185700D02*
D03*
X202700Y149500D02*
D03*
Y166500D02*
D03*
Y183500D02*
D03*
Y200500D02*
D03*
Y217500D02*
D03*
Y234500D02*
D03*
X185700Y251500D02*
D03*
X168700D02*
D03*
X151700D02*
D03*
X134700D02*
D03*
X117700Y234500D02*
D03*
Y217500D02*
D03*
Y200500D02*
D03*
Y183500D02*
D03*
Y166500D02*
D03*
Y149500D02*
D03*
X134700Y132500D02*
D03*
X151700D02*
D03*
X168700D02*
D03*
X185700D02*
D03*
D36*
X316500Y232800D02*
D03*
X296200D02*
D03*
X306350Y156600D02*
D03*
D37*
X94800Y376700D02*
D03*
Y351300D02*
D03*
X145600Y376700D02*
D03*
Y351300D02*
D03*
X221800Y376700D02*
D03*
Y351300D02*
D03*
X247200Y376700D02*
D03*
Y351300D02*
D03*
X298000Y376700D02*
D03*
X272600Y351300D02*
D03*
Y376700D02*
D03*
X196400Y351300D02*
D03*
Y376700D02*
D03*
X171000Y351300D02*
D03*
Y376700D02*
D03*
X120200Y351300D02*
D03*
Y376700D02*
D03*
X69400Y351300D02*
D03*
X44000D02*
D03*
X69400Y376700D02*
D03*
X44000D02*
D03*
D38*
X298000Y351300D02*
D03*
D39*
X22000Y23600D02*
D03*
X320000D02*
D03*
D40*
X22000Y49000D02*
D03*
Y74400D02*
D03*
X320000Y49000D02*
D03*
Y74400D02*
D03*
D41*
X187000Y18000D02*
D03*
X94000D02*
D03*
Y27000D02*
D03*
Y36000D02*
D03*
X187000Y27000D02*
D03*
Y36000D02*
D03*
X239000Y18000D02*
D03*
Y27000D02*
D03*
Y36000D02*
D03*
X42000Y18000D02*
D03*
Y27000D02*
D03*
Y36000D02*
D03*
M02*
