G04*
G04 #@! TF.GenerationSoftware,Altium Limited,Altium Designer,22.9.1 (49)*
G04*
G04 Layer_Physical_Order=4*
G04 Layer_Color=16711680*
%FSLAX44Y44*%
%MOMM*%
G71*
G04*
G04 #@! TF.SameCoordinates,160F3373-32AC-4E58-B31D-FCE43EB9D5FB*
G04*
G04*
G04 #@! TF.FilePolarity,Positive*
G04*
G01*
G75*
%ADD13C,0.2540*%
%ADD19R,0.3600X0.2500*%
%ADD21R,0.6000X0.6000*%
%ADD23R,0.4064X0.8636*%
%ADD44C,0.5000*%
%ADD45C,1.0668*%
%ADD46C,1.6500*%
%ADD47R,1.6500X1.6500*%
%ADD48R,1.6000X1.6000*%
%ADD49C,1.6000*%
%ADD50C,0.5080*%
%ADD51C,0.6000*%
G04:AMPARAMS|DCode=52|XSize=1.5242mm|YSize=0.578mm|CornerRadius=0.289mm|HoleSize=0mm|Usage=FLASHONLY|Rotation=180.000|XOffset=0mm|YOffset=0mm|HoleType=Round|Shape=RoundedRectangle|*
%AMROUNDEDRECTD52*
21,1,1.5242,0.0000,0,0,180.0*
21,1,0.9463,0.5780,0,0,180.0*
1,1,0.5780,-0.4731,0.0000*
1,1,0.5780,0.4731,0.0000*
1,1,0.5780,0.4731,0.0000*
1,1,0.5780,-0.4731,0.0000*
%
%ADD52ROUNDEDRECTD52*%
%ADD53R,1.5242X0.5780*%
%ADD54R,0.6000X0.6000*%
%ADD55R,4.1000X2.4000*%
%ADD56R,0.4500X1.1000*%
%ADD57R,0.5780X1.5242*%
G04:AMPARAMS|DCode=58|XSize=1.5242mm|YSize=0.578mm|CornerRadius=0.289mm|HoleSize=0mm|Usage=FLASHONLY|Rotation=90.000|XOffset=0mm|YOffset=0mm|HoleType=Round|Shape=RoundedRectangle|*
%AMROUNDEDRECTD58*
21,1,1.5242,0.0000,0,0,90.0*
21,1,0.9463,0.5780,0,0,90.0*
1,1,0.5780,0.0000,0.4731*
1,1,0.5780,0.0000,-0.4731*
1,1,0.5780,0.0000,-0.4731*
1,1,0.5780,0.0000,0.4731*
%
%ADD58ROUNDEDRECTD58*%
%ADD59R,1.8000X1.2500*%
G36*
X126010Y67970D02*
X124740Y67585D01*
X124358Y68158D01*
X123276Y68880D01*
X122000Y69134D01*
X121497Y69034D01*
X110100D01*
X109597Y68934D01*
X107156D01*
X106490Y69600D01*
Y88160D01*
X100010Y94640D01*
Y104080D01*
X105010Y109080D01*
X126011D01*
X126010Y67970D01*
D02*
G37*
G36*
X81000Y358000D02*
Y339000D01*
X73000Y331000D01*
Y306900D01*
Y297000D01*
D01*
Y296900D01*
X73100D01*
X74200Y295800D01*
X84200D01*
X87200Y292800D01*
Y275087D01*
X87000Y273900D01*
X77000D01*
Y272800D01*
X48200D01*
X46162Y274838D01*
X45900Y276000D01*
X45900D01*
Y286000D01*
X36000D01*
X34200Y287800D01*
D01*
X33000Y289000D01*
X33000D01*
Y347164D01*
X43342D01*
X45098Y347514D01*
X46587Y348508D01*
X47581Y349997D01*
X47931Y351753D01*
X47581Y353508D01*
X46587Y354997D01*
X45098Y355991D01*
X43342Y356341D01*
X33000D01*
Y358000D01*
X39000Y364000D01*
Y364000D01*
X75000D01*
X81000Y358000D01*
D02*
G37*
D13*
X144769Y339810D02*
G03*
X146430Y339810I830J11490D01*
G01*
X76000Y150000D02*
X86200D01*
X89000Y186000D02*
X103000Y172000D01*
Y124775D02*
Y172000D01*
X99754Y121530D02*
X103000Y124775D01*
X321000Y159082D02*
Y188000D01*
Y187313D02*
Y188000D01*
Y187313D02*
X322270Y186043D01*
Y182020D02*
Y186043D01*
X298568Y136650D02*
X321000Y159082D01*
X29000Y187000D02*
X36810Y194810D01*
X42175Y176175D02*
Y187825D01*
X42000Y188000D02*
X42175Y187825D01*
X62380Y186000D02*
X78500D01*
X47965Y167135D02*
X64100D01*
X42350Y172750D02*
Y176000D01*
X42175Y176175D02*
X42350Y176000D01*
X36810Y194810D02*
X53570D01*
X42350Y172750D02*
X47965Y167135D01*
X53570Y194810D02*
X62380Y186000D01*
X29325Y176325D02*
Y186675D01*
Y176325D02*
X29650Y176000D01*
X29000Y187000D02*
X29325Y186675D01*
X331400Y195000D02*
Y199913D01*
X319486Y198004D02*
Y199514D01*
X294804Y224196D02*
X319486Y199514D01*
Y198004D02*
X322490Y195000D01*
X258173Y224196D02*
X294804D01*
X54486Y119436D02*
X55050Y120000D01*
X54000Y110000D02*
X54486Y110486D01*
Y119436D01*
X39486Y279086D02*
X41400Y281000D01*
X39486Y275486D02*
Y279086D01*
X39000Y275000D02*
X39486Y275486D01*
X46793Y248120D02*
X48693Y250020D01*
X230456Y265480D02*
X233270D01*
X227936Y268000D02*
X230456Y265480D01*
X227000Y268000D02*
X227936D01*
X233270Y265480D02*
X235000Y263750D01*
X220190Y265150D02*
X232190Y253150D01*
X221193Y271824D02*
Y277438D01*
X220190Y265150D02*
Y270821D01*
X218675Y279956D02*
X221193Y277438D01*
X220190Y270821D02*
X221193Y271824D01*
X213721Y275040D02*
X214383Y274378D01*
X185576Y266363D02*
X191370Y260570D01*
X238079Y228921D02*
X264000Y203000D01*
X191370Y260570D02*
X201975D01*
X228050Y248464D02*
Y251436D01*
X212821Y260810D02*
X223910Y249721D01*
X228050Y248464D02*
X262514Y214000D01*
X223910Y244091D02*
X238079Y229921D01*
X210240Y264950D02*
X214536D01*
X177893Y306141D02*
X185576Y298457D01*
X207000Y268190D02*
X210240Y264950D01*
X214536D02*
X228050Y251436D01*
X262514Y214000D02*
X275000D01*
X232190Y250179D02*
X258173Y224196D01*
X232190Y250179D02*
Y253150D01*
X238079Y228921D02*
Y229921D01*
X201975Y260570D02*
X202215Y260810D01*
X192650Y236650D02*
X210000Y254000D01*
X185576Y266363D02*
Y298457D01*
X207000Y274750D02*
X211500Y279250D01*
X207000Y268190D02*
Y274750D01*
X107370Y246657D02*
X117377Y236650D01*
X192650D01*
X163358Y339096D02*
X184852Y340452D01*
X196400Y352000D01*
X200730Y330230D02*
Y330354D01*
X196500Y326000D02*
X200730Y330230D01*
Y330354D02*
X202646Y332270D01*
X225480D01*
X231480Y326270D01*
X92000Y314526D02*
X92250Y314276D01*
X92500Y279250D02*
Y291398D01*
X83914Y267486D02*
X88514D01*
X78000Y302000D02*
Y302200D01*
X82514Y306714D02*
Y309514D01*
X211893Y306141D02*
X218675Y299359D01*
X225025Y282586D02*
X225263Y282824D01*
Y291161D02*
X225500Y291398D01*
X225263Y282824D02*
Y291161D01*
X218675Y279956D02*
Y299359D01*
X193997Y288000D02*
X201000D01*
X202215Y260810D02*
X212821D01*
X177500Y286667D02*
Y291398D01*
X192500Y279250D02*
Y289497D01*
X193997Y288000D01*
X192500Y289497D02*
Y291398D01*
X159102Y292000D02*
X167000D01*
X158500Y291398D02*
X159102Y292000D01*
X125500Y291398D02*
X125938Y290960D01*
X144500Y286766D02*
Y291398D01*
X134881Y283580D02*
X135817D01*
X125938Y290960D02*
X130583D01*
X135817Y283580D02*
X137383Y285146D01*
X142880D01*
X211500Y279250D02*
X213721Y277029D01*
X119258Y274868D02*
Y278909D01*
Y274868D02*
X125396Y268730D01*
X111500Y286667D02*
X119258Y278909D01*
X298000Y351300D02*
X325000Y324300D01*
Y296250D02*
Y324300D01*
X311000Y301000D02*
X311413Y300587D01*
X320663D01*
X325000Y296250D01*
X272600Y351300D02*
X284120Y362820D01*
X307604D01*
X332350Y338074D01*
Y267600D02*
Y338074D01*
X325000Y260250D02*
X332350Y267600D01*
X311000Y267000D02*
X312428Y265572D01*
X319678D01*
X325000Y260250D01*
X35000Y138765D02*
Y147000D01*
X36000Y148000D01*
X40629Y374029D02*
X44000Y377400D01*
X36851Y374029D02*
X40629D01*
X36618Y373795D02*
X36851Y374029D01*
X88514Y267486D02*
X89000Y267000D01*
X86890Y171000D02*
X87400D01*
X84584Y173307D02*
X86890Y171000D01*
X84584Y173307D02*
Y175417D01*
X84000Y176000D02*
X84584Y175417D01*
X94600Y161000D02*
Y168010D01*
X86982Y175628D02*
X94600Y168010D01*
X84584Y175628D02*
X86982D01*
X84097Y176114D02*
X84584Y175628D01*
X94600Y161000D02*
X94950Y160650D01*
Y150350D02*
Y160650D01*
Y150350D02*
X95300Y150000D01*
X95000Y128000D02*
Y139000D01*
X95150Y139150D01*
Y149850D01*
X95300Y150000D01*
X257500Y291500D02*
X258120Y292120D01*
Y302046D01*
X259113Y303039D01*
Y303726D01*
X275000Y143762D02*
Y145000D01*
X274238Y143000D02*
X275000Y143762D01*
X268000Y143000D02*
X274238D01*
X275000Y244500D02*
Y244700D01*
X269486Y238986D02*
X275000Y244500D01*
X269486Y237486D02*
Y238986D01*
X269000Y237000D02*
X269486Y237486D01*
X273687Y178000D02*
X279600D01*
X272687Y177000D02*
X273687Y178000D01*
X272000Y177000D02*
X272687D01*
X279580Y200420D02*
X279600Y200399D01*
X277268Y200420D02*
X279580D01*
X275687Y202000D02*
X277268Y200420D01*
X275000Y202000D02*
X275687D01*
X275000Y266500D02*
Y266700D01*
Y266500D02*
X276930Y264570D01*
X280743D01*
X281313Y264000D01*
X282000D01*
X311000Y282000D02*
X311000Y282000D01*
X323313D01*
X325313Y280000D01*
X326000D01*
X325625Y249375D02*
X329625D01*
X330000Y249000D01*
X330670Y182020D02*
Y186643D01*
X330000Y187313D02*
X330670Y186643D01*
X330000Y187313D02*
Y188687D01*
X331400Y190087D01*
X330000Y201313D02*
X331400Y199913D01*
X330000Y201313D02*
Y202687D01*
X330890Y208000D02*
X331400D01*
X330870Y207980D02*
X330890Y208000D01*
X330870Y203557D02*
Y207980D01*
X330000Y202687D02*
X330870Y203557D01*
X126500Y200000D02*
X181724D01*
X245074Y136650D01*
X298568D01*
X110000Y65600D02*
X110100Y65700D01*
X121900D01*
X122000Y65800D01*
X98000Y65600D02*
X110000D01*
X29650Y120000D02*
X29825Y119825D01*
Y109175D02*
Y119825D01*
Y109175D02*
X30000Y109000D01*
X247200Y352000D02*
X248374D01*
X270520Y329854D01*
Y329730D02*
Y329854D01*
Y329730D02*
X272250Y328000D01*
X18898Y222500D02*
X19148Y222750D01*
X35750D01*
X36000Y223000D01*
X18898Y257000D02*
X39827D01*
X40897Y258070D01*
X41833D01*
X221800Y351300D02*
X240250Y332850D01*
Y325742D02*
Y332850D01*
X102000Y309602D02*
Y314190D01*
X107000Y319190D01*
Y325000D01*
X169692Y352000D02*
X171000D01*
X156895Y339203D02*
X169692Y352000D01*
X151915Y339203D02*
X156895D01*
X107730Y326730D02*
X113533Y332533D01*
X127961D01*
X132764Y337336D01*
X37102Y232000D02*
X47750D01*
X52000Y227750D01*
X37102Y266500D02*
X38722Y264880D01*
X48370D01*
X50000Y263250D01*
X52000Y227750D02*
X58840Y234590D01*
Y256160D01*
X95220D01*
X107250Y268190D01*
Y282417D02*
X111500Y286667D01*
X125396Y268730D02*
X134104D01*
X138520Y273146D01*
Y273270D01*
X140250Y275000D01*
Y282417D01*
X144500Y286667D01*
X152258Y278909D01*
Y274868D02*
Y278909D01*
Y274868D02*
X158396Y268730D01*
X167104D01*
X171520Y273146D01*
Y273270D01*
X173250Y275000D01*
Y282417D01*
X177500Y286667D01*
X211500Y279250D02*
Y291398D01*
X64100Y167135D02*
X68735Y162500D01*
X168000Y307637D02*
Y314190D01*
Y307637D02*
X169497Y306141D01*
X177893D01*
X223910Y244091D02*
Y249721D01*
X67000Y152000D02*
X73339D01*
X75339Y150000D01*
X168000Y314190D02*
X173000Y319190D01*
Y326000D01*
X323000Y208000D02*
X323000Y208000D01*
X323000Y208000D02*
Y214000D01*
X192500Y279250D02*
X196750Y275000D01*
X158500Y279250D02*
X162750Y275000D01*
X158500Y279250D02*
Y291398D01*
X125500Y279250D02*
X129750Y275000D01*
X125500Y279250D02*
Y291398D01*
X76000Y139000D02*
X86400D01*
X51000Y250000D02*
X51368Y249632D01*
Y244388D02*
Y249632D01*
Y244388D02*
X52030Y243726D01*
X48370Y213620D02*
X51625Y216875D01*
X52375D01*
X109000Y207000D02*
X116000Y200000D01*
X91000Y207000D02*
X109000D01*
X52375Y208625D02*
Y216875D01*
Y208625D02*
X52750Y208250D01*
X96500Y326000D02*
X100730Y330230D01*
Y330354D01*
X110156Y339780D01*
X124972D01*
X133821Y348629D01*
X142229D01*
X145600Y352000D01*
X129500Y326000D02*
X133730Y330230D01*
Y330354D01*
X136376Y333000D01*
X147000D01*
X162500Y326000D02*
X164230Y327730D01*
Y330040D01*
X165468Y331278D01*
X261750Y328000D02*
X265980Y323770D01*
Y323646D02*
Y323770D01*
Y323646D02*
X269086Y320540D01*
X292130D01*
X184388Y326000D02*
X196500D01*
X184388Y326000D02*
X184388Y326000D01*
X255352Y321603D02*
X261750Y328000D01*
X236023Y321603D02*
X255352D01*
X231480Y326146D02*
X236023Y321603D01*
X231480Y326146D02*
Y326270D01*
X55000Y176050D02*
X55050Y176000D01*
X55000Y176050D02*
Y177000D01*
X78490Y171000D02*
X79000D01*
X78470Y170980D02*
X78490Y171000D01*
X78470Y166844D02*
Y170980D01*
X76436Y164810D02*
X78470Y166844D01*
X76436Y161436D02*
Y164810D01*
X76000Y161000D02*
X76436Y161436D01*
X86000Y161000D02*
X86000Y161000D01*
X76000Y161000D02*
X86000D01*
X202000Y307637D02*
Y309602D01*
Y307637D02*
X203497Y306141D01*
X211893D01*
X202000Y309602D02*
X202620Y310222D01*
Y321620D01*
X205270Y324270D01*
X206270D01*
X207000Y325000D01*
X322490Y195000D02*
X323000D01*
X275838Y276138D02*
Y276338D01*
X273070Y273370D02*
X275838Y276138D01*
X270445Y273370D02*
X273070D01*
X265000Y267924D02*
X270445Y273370D01*
X265000Y267000D02*
Y267924D01*
X275838Y276338D02*
X280007Y280507D01*
X280744D01*
X287445Y287208D01*
Y290003D01*
X288942Y291500D01*
X292796D01*
X141730Y326000D02*
X149631D01*
X155717Y332086D01*
Y332170D01*
X161803Y338256D01*
X265386Y256000D02*
X268086Y253300D01*
X265000Y256000D02*
X265386D01*
X282988Y253300D02*
X287188Y257500D01*
X292796D01*
X76000Y128000D02*
X86400D01*
X88330Y126070D01*
Y123446D02*
Y126070D01*
Y123446D02*
X90246Y121530D01*
X99754D01*
X275124Y169638D02*
X275762Y169000D01*
X267049Y169638D02*
X275124D01*
X264687Y172000D02*
X267049Y169638D01*
X264000Y172000D02*
X264687D01*
X275762Y169000D02*
X291000D01*
X288000Y195000D02*
Y200399D01*
X239250Y253000D02*
X250000Y263750D01*
X239000Y253000D02*
X239250D01*
X250000Y274000D02*
X256810D01*
X264200Y281390D01*
Y294219D01*
X267000Y297019D01*
Y309602D01*
X271010Y291398D02*
X276500D01*
X235000Y275000D02*
Y309602D01*
X244500Y291398D02*
Y296129D01*
X249115Y300744D01*
Y306213D01*
X249777Y306875D01*
X331400Y190087D02*
Y199913D01*
X268086Y253300D02*
X282988D01*
X135000Y309602D02*
X135620Y310222D01*
X213721Y275040D02*
Y277029D01*
X92250Y291648D02*
X92500Y291398D01*
X138270Y324270D02*
X140000D01*
X37102Y213000D02*
X37722Y213620D01*
X51000Y262250D02*
X55230Y258020D01*
X92500Y279250D02*
X96750Y275000D01*
X48693Y250020D02*
X49270D01*
X107250Y268190D02*
Y282417D01*
X135620Y310222D02*
Y321620D01*
X37102Y247500D02*
X37722Y248120D01*
X165540Y332286D02*
X166020Y332766D01*
X49270Y250020D02*
X51000Y251750D01*
X78000Y302200D02*
X82514Y306714D01*
X55230Y258020D02*
X56980D01*
X140000Y324270D02*
X141730Y326000D01*
X37722Y248120D02*
X46793D01*
X135620Y321620D02*
X138270Y324270D01*
X37722Y213620D02*
X48370D01*
X56980Y258020D02*
X58840Y256160D01*
X82000Y269400D02*
X83914Y267486D01*
X82514Y309514D02*
X83000Y310000D01*
X92250Y291648D02*
Y314276D01*
X166020Y332766D02*
X170140D01*
X162650Y339000D02*
X163358Y339096D01*
X177354Y332270D02*
X177409Y332222D01*
X170140Y332766D02*
X177354Y332270D01*
X177409Y332222D02*
X184388Y326000D01*
X161968Y338401D02*
X162650Y339000D01*
X161803Y338256D02*
X161968Y338401D01*
X149821Y339810D02*
X151915Y339203D01*
X144179Y339810D02*
X144769D01*
X132764Y337336D02*
X144179Y339810D01*
X146430Y339810D02*
X149821D01*
X288000Y178000D02*
Y183000D01*
X275000Y166590D02*
Y168238D01*
X111500Y286667D02*
Y291398D01*
D19*
X323000Y195000D02*
D03*
X331400D02*
D03*
X323000Y208000D02*
D03*
X331400D02*
D03*
X288000Y200399D02*
D03*
X279600D02*
D03*
X288000Y178000D02*
D03*
X279600D02*
D03*
X322800Y182000D02*
D03*
X331200D02*
D03*
X79000Y171000D02*
D03*
X87400D02*
D03*
D21*
X50500Y281000D02*
D03*
X40900D02*
D03*
X95500Y161000D02*
D03*
X85900D02*
D03*
X85900Y139000D02*
D03*
X95500D02*
D03*
Y128000D02*
D03*
X85900D02*
D03*
X85900Y150000D02*
D03*
X95500D02*
D03*
X51000Y262250D02*
D03*
Y251750D02*
D03*
X52000Y227750D02*
D03*
Y217250D02*
D03*
X325000Y296250D02*
D03*
Y285750D02*
D03*
Y260250D02*
D03*
Y249750D02*
D03*
X67000Y152000D02*
D03*
Y162500D02*
D03*
X235000Y263750D02*
D03*
Y274250D02*
D03*
X250000Y263750D02*
D03*
Y274250D02*
D03*
D23*
X275000Y166590D02*
D03*
Y145000D02*
D03*
X17000Y352205D02*
D03*
Y373795D02*
D03*
D44*
X15979Y300497D02*
Y313250D01*
Y300497D02*
X16477Y300000D01*
X110000Y49000D02*
Y57000D01*
X98000Y49000D02*
Y57000D01*
X10040Y291000D02*
X10055Y291015D01*
Y293805D01*
X16250Y300000D01*
X16477D01*
X141000Y96000D02*
X143985Y93015D01*
X153985D01*
X154000Y93000D01*
X141000Y96000D02*
X144750Y99750D01*
X153728D01*
X153978Y100000D01*
X154000D01*
X311000Y248000D02*
X311149Y248149D01*
X318859D01*
X319960Y249250D01*
X324500D01*
X325000Y249750D01*
Y285750D02*
X326000Y284750D01*
Y280000D02*
Y284750D01*
X17000Y352205D02*
X17452Y351753D01*
X43342D01*
X15000Y373795D02*
X36618D01*
X15000Y352205D02*
X17000D01*
X122000Y48000D02*
Y56000D01*
X257500Y291398D02*
Y291500D01*
D45*
X316500Y232800D02*
D03*
X296200D02*
D03*
X306350Y156600D02*
D03*
D46*
X94800Y376700D02*
D03*
Y351300D02*
D03*
X145600Y376700D02*
D03*
Y351300D02*
D03*
X221800Y376700D02*
D03*
Y351300D02*
D03*
X247200Y376700D02*
D03*
Y351300D02*
D03*
X298000Y376700D02*
D03*
X272600Y351300D02*
D03*
Y376700D02*
D03*
X196400Y351300D02*
D03*
Y376700D02*
D03*
X171000Y351300D02*
D03*
Y376700D02*
D03*
X120200Y351300D02*
D03*
Y376700D02*
D03*
X69400Y351300D02*
D03*
X44000D02*
D03*
X69400Y376700D02*
D03*
X44000D02*
D03*
D47*
X298000Y351300D02*
D03*
D48*
X22000Y23600D02*
D03*
X320000D02*
D03*
D49*
X22000Y49000D02*
D03*
Y74400D02*
D03*
X320000Y49000D02*
D03*
Y74400D02*
D03*
D50*
X187000Y18000D02*
D03*
X94000D02*
D03*
Y27000D02*
D03*
Y36000D02*
D03*
X187000Y27000D02*
D03*
Y36000D02*
D03*
X239000Y18000D02*
D03*
Y27000D02*
D03*
Y36000D02*
D03*
X42000Y18000D02*
D03*
Y27000D02*
D03*
Y36000D02*
D03*
X321000Y188000D02*
D03*
X319000Y200000D02*
D03*
X15979Y313250D02*
D03*
X54000Y110000D02*
D03*
X110000Y49000D02*
D03*
X98000D02*
D03*
X10040Y291000D02*
D03*
X158000Y244000D02*
D03*
X176000D02*
D03*
X194000Y251000D02*
D03*
X226510Y232510D02*
D03*
X91000Y241000D02*
D03*
X83000Y310000D02*
D03*
X39000Y275000D02*
D03*
X225025Y282586D02*
D03*
X194000Y266920D02*
D03*
X89000Y267000D02*
D03*
X306000Y320000D02*
D03*
X282000Y264000D02*
D03*
X269000Y237000D02*
D03*
X272000Y177000D02*
D03*
X268000Y143000D02*
D03*
X122000Y48000D02*
D03*
X141000Y107000D02*
D03*
X156000D02*
D03*
X168000D02*
D03*
X330000Y188000D02*
D03*
Y202000D02*
D03*
Y249000D02*
D03*
X259113Y303726D02*
D03*
X84097Y176114D02*
D03*
X174000Y263000D02*
D03*
X134000Y262000D02*
D03*
X122000Y72000D02*
D03*
X291000Y169000D02*
D03*
X275000Y202000D02*
D03*
X264000Y172000D02*
D03*
X288000Y183000D02*
D03*
X60000Y304000D02*
D03*
X290000Y211000D02*
D03*
X312700Y169300D02*
D03*
X68000Y297000D02*
D03*
X59434Y292186D02*
D03*
X91000Y224000D02*
D03*
X59000Y278000D02*
D03*
X159000Y261000D02*
D03*
X111000Y72000D02*
D03*
X103000Y98000D02*
D03*
X123000Y107000D02*
D03*
X111000D02*
D03*
X154000Y93000D02*
D03*
Y100000D02*
D03*
X133000Y72000D02*
D03*
X145000D02*
D03*
X88000Y91000D02*
D03*
X60000Y104000D02*
D03*
X76000Y128000D02*
D03*
Y139000D02*
D03*
Y150000D02*
D03*
Y161000D02*
D03*
X228000Y217000D02*
D03*
X151000Y141000D02*
D03*
X166000D02*
D03*
X184000D02*
D03*
X185000Y107000D02*
D03*
X243000Y117000D02*
D03*
X190000Y91000D02*
D03*
X201000D02*
D03*
X223000D02*
D03*
X234000D02*
D03*
X326000Y280000D02*
D03*
D51*
X42000Y188000D02*
D03*
X29000Y187000D02*
D03*
X22127Y165796D02*
D03*
X39000Y290000D02*
D03*
X227000Y268000D02*
D03*
X214383Y274378D02*
D03*
X210000Y254000D02*
D03*
X107370Y246657D02*
D03*
X92000Y314526D02*
D03*
X201000Y288000D02*
D03*
X167000Y292000D02*
D03*
X130583Y290960D02*
D03*
X134881Y283580D02*
D03*
X292130Y320540D02*
D03*
X265000Y267000D02*
D03*
X165540Y332286D02*
D03*
X147000Y333000D02*
D03*
X265000Y256000D02*
D03*
X35000Y138765D02*
D03*
X30000Y109000D02*
D03*
X323000Y214000D02*
D03*
X275000D02*
D03*
X264000Y203000D02*
D03*
X288000Y195000D02*
D03*
X239000Y253000D02*
D03*
X52750Y208250D02*
D03*
X52030Y243726D02*
D03*
X271010Y291398D02*
D03*
X41833Y258070D02*
D03*
X249777Y306875D02*
D03*
X36000Y223000D02*
D03*
X91000Y207000D02*
D03*
X55000Y177000D02*
D03*
D52*
X292796Y291500D02*
D03*
X311000Y282000D02*
D03*
X37102Y247500D02*
D03*
X18898Y257000D02*
D03*
X37102Y213000D02*
D03*
X18898Y222500D02*
D03*
X311000Y248000D02*
D03*
X292796Y257500D02*
D03*
D53*
X311000Y301000D02*
D03*
X37102Y266500D02*
D03*
Y232000D02*
D03*
X311000Y267000D02*
D03*
D54*
X122000Y65700D02*
D03*
Y56100D02*
D03*
X78000Y292300D02*
D03*
Y301900D02*
D03*
X82000Y268900D02*
D03*
Y278500D02*
D03*
X110000Y66100D02*
D03*
Y56500D02*
D03*
X275000Y266200D02*
D03*
Y275800D02*
D03*
Y253800D02*
D03*
Y244200D02*
D03*
X98000Y56500D02*
D03*
Y66100D02*
D03*
X229750Y328000D02*
D03*
X240250D02*
D03*
X261750Y328000D02*
D03*
X272250D02*
D03*
X207250Y275000D02*
D03*
X196750D02*
D03*
X196500Y326000D02*
D03*
X207000D02*
D03*
X173250Y275000D02*
D03*
X162750D02*
D03*
X162500Y326000D02*
D03*
X173000D02*
D03*
X140250Y275000D02*
D03*
X129750D02*
D03*
X129500Y326000D02*
D03*
X140000D02*
D03*
X107250Y275000D02*
D03*
X96750D02*
D03*
X96500Y326000D02*
D03*
X107000D02*
D03*
X116000Y200000D02*
D03*
X126500D02*
D03*
X89000Y186000D02*
D03*
X78500D02*
D03*
D55*
X36000Y148000D02*
D03*
D56*
X55050Y176000D02*
D03*
X42350D02*
D03*
X29650D02*
D03*
X16950D02*
D03*
Y120000D02*
D03*
X29650D02*
D03*
X42350D02*
D03*
X55050D02*
D03*
D57*
X211500Y291398D02*
D03*
X177500D02*
D03*
X144500D02*
D03*
X111500D02*
D03*
X244500D02*
D03*
X276500D02*
D03*
D58*
X192500D02*
D03*
X202000Y309602D02*
D03*
X158500Y291398D02*
D03*
X168000Y309602D02*
D03*
X125500Y291398D02*
D03*
X135000Y309602D02*
D03*
X92500Y291398D02*
D03*
X102000Y309602D02*
D03*
X225500Y291398D02*
D03*
X235000Y309602D02*
D03*
X257500Y291398D02*
D03*
X267000Y309602D02*
D03*
D59*
X19000Y300000D02*
D03*
X45000D02*
D03*
X141000Y96000D02*
D03*
X115000D02*
D03*
M02*
