G04*
G04 #@! TF.GenerationSoftware,Altium Limited,Altium Designer,22.9.1 (49)*
G04*
G04 Layer_Color=16711935*
%FSLAX44Y44*%
%MOMM*%
G71*
G04*
G04 #@! TF.SameCoordinates,160F3373-32AC-4E58-B31D-FCE43EB9D5FB*
G04*
G04*
G04 #@! TF.FilePolarity,Negative*
G04*
G01*
G75*
%ADD21R,0.6000X0.6000*%
%ADD23R,0.4064X0.8636*%
%ADD30R,0.4600X0.3500*%
%ADD36C,1.1668*%
%ADD37C,1.7500*%
%ADD38R,1.7500X1.7500*%
%ADD39R,1.7000X1.7000*%
%ADD40C,1.7000*%
%ADD41C,0.6080*%
G04:AMPARAMS|DCode=52|XSize=1.5242mm|YSize=0.578mm|CornerRadius=0.289mm|HoleSize=0mm|Usage=FLASHONLY|Rotation=180.000|XOffset=0mm|YOffset=0mm|HoleType=Round|Shape=RoundedRectangle|*
%AMROUNDEDRECTD52*
21,1,1.5242,0.0000,0,0,180.0*
21,1,0.9463,0.5780,0,0,180.0*
1,1,0.5780,-0.4731,0.0000*
1,1,0.5780,0.4731,0.0000*
1,1,0.5780,0.4731,0.0000*
1,1,0.5780,-0.4731,0.0000*
%
%ADD52ROUNDEDRECTD52*%
%ADD53R,1.5242X0.5780*%
%ADD54R,0.6000X0.6000*%
%ADD57R,0.5780X1.5242*%
G04:AMPARAMS|DCode=58|XSize=1.5242mm|YSize=0.578mm|CornerRadius=0.289mm|HoleSize=0mm|Usage=FLASHONLY|Rotation=90.000|XOffset=0mm|YOffset=0mm|HoleType=Round|Shape=RoundedRectangle|*
%AMROUNDEDRECTD58*
21,1,1.5242,0.0000,0,0,90.0*
21,1,0.9463,0.5780,0,0,90.0*
1,1,0.5780,0.0000,0.4731*
1,1,0.5780,0.0000,-0.4731*
1,1,0.5780,0.0000,-0.4731*
1,1,0.5780,0.0000,0.4731*
%
%ADD58ROUNDEDRECTD58*%
%ADD60R,0.7000X0.7000*%
%ADD61R,0.7000X0.7000*%
%ADD62R,4.2000X2.5000*%
%ADD63R,0.5500X1.2000*%
%ADD64R,1.9000X1.3500*%
D21*
X51000Y262250D02*
D03*
Y251750D02*
D03*
X52000Y227750D02*
D03*
Y217250D02*
D03*
X325000Y296250D02*
D03*
Y285750D02*
D03*
Y260250D02*
D03*
Y249750D02*
D03*
X67000Y152000D02*
D03*
Y162500D02*
D03*
X235000Y263750D02*
D03*
Y274250D02*
D03*
X250000Y263750D02*
D03*
Y274250D02*
D03*
D23*
X275000Y166590D02*
D03*
Y145000D02*
D03*
X17000Y352205D02*
D03*
Y373795D02*
D03*
D30*
X323000Y195000D02*
D03*
X331400D02*
D03*
X323000Y208000D02*
D03*
X331400D02*
D03*
X288000Y200399D02*
D03*
X279600D02*
D03*
X288000Y178000D02*
D03*
X279600D02*
D03*
X322800Y182000D02*
D03*
X331200D02*
D03*
X79000Y171000D02*
D03*
X87400D02*
D03*
D36*
X316500Y232800D02*
D03*
X296200D02*
D03*
X306350Y156600D02*
D03*
D37*
X94800Y376700D02*
D03*
Y351300D02*
D03*
X145600Y376700D02*
D03*
Y351300D02*
D03*
X221800Y376700D02*
D03*
Y351300D02*
D03*
X247200Y376700D02*
D03*
Y351300D02*
D03*
X298000Y376700D02*
D03*
X272600Y351300D02*
D03*
Y376700D02*
D03*
X196400Y351300D02*
D03*
Y376700D02*
D03*
X171000Y351300D02*
D03*
Y376700D02*
D03*
X120200Y351300D02*
D03*
Y376700D02*
D03*
X69400Y351300D02*
D03*
X44000D02*
D03*
X69400Y376700D02*
D03*
X44000D02*
D03*
D38*
X298000Y351300D02*
D03*
D39*
X22000Y23600D02*
D03*
X320000D02*
D03*
D40*
X22000Y49000D02*
D03*
Y74400D02*
D03*
X320000Y49000D02*
D03*
Y74400D02*
D03*
D41*
X187000Y18000D02*
D03*
X94000D02*
D03*
Y27000D02*
D03*
Y36000D02*
D03*
X187000Y27000D02*
D03*
Y36000D02*
D03*
X239000Y18000D02*
D03*
Y27000D02*
D03*
Y36000D02*
D03*
X42000Y18000D02*
D03*
Y27000D02*
D03*
Y36000D02*
D03*
D52*
X292796Y291500D02*
D03*
X311000Y282000D02*
D03*
X37102Y247500D02*
D03*
X18898Y257000D02*
D03*
X37102Y213000D02*
D03*
X18898Y222500D02*
D03*
X311000Y248000D02*
D03*
X292796Y257500D02*
D03*
D53*
X311000Y301000D02*
D03*
X37102Y266500D02*
D03*
Y232000D02*
D03*
X311000Y267000D02*
D03*
D54*
X229750Y328000D02*
D03*
X240250D02*
D03*
X261750Y328000D02*
D03*
X272250D02*
D03*
X207250Y275000D02*
D03*
X196750D02*
D03*
X196500Y326000D02*
D03*
X207000D02*
D03*
X173250Y275000D02*
D03*
X162750D02*
D03*
X162500Y326000D02*
D03*
X173000D02*
D03*
X140250Y275000D02*
D03*
X129750D02*
D03*
X129500Y326000D02*
D03*
X140000D02*
D03*
X107250Y275000D02*
D03*
X96750D02*
D03*
X96500Y326000D02*
D03*
X107000D02*
D03*
X116000Y200000D02*
D03*
X126500D02*
D03*
X89000Y186000D02*
D03*
X78500D02*
D03*
D57*
X211500Y291398D02*
D03*
X177500D02*
D03*
X144500D02*
D03*
X111500D02*
D03*
X244500D02*
D03*
X276500D02*
D03*
D58*
X192500D02*
D03*
X202000Y309602D02*
D03*
X158500Y291398D02*
D03*
X168000Y309602D02*
D03*
X125500Y291398D02*
D03*
X135000Y309602D02*
D03*
X92500Y291398D02*
D03*
X102000Y309602D02*
D03*
X225500Y291398D02*
D03*
X235000Y309602D02*
D03*
X257500Y291398D02*
D03*
X267000Y309602D02*
D03*
D60*
X122000Y65700D02*
D03*
Y56100D02*
D03*
X78000Y292300D02*
D03*
Y301900D02*
D03*
X82000Y268900D02*
D03*
Y278500D02*
D03*
X110000Y66100D02*
D03*
Y56500D02*
D03*
X275000Y266200D02*
D03*
Y275800D02*
D03*
Y253800D02*
D03*
Y244200D02*
D03*
X98000Y56500D02*
D03*
Y66100D02*
D03*
D61*
X50500Y281000D02*
D03*
X40900D02*
D03*
X95500Y161000D02*
D03*
X85900D02*
D03*
X85900Y139000D02*
D03*
X95500D02*
D03*
Y128000D02*
D03*
X85900D02*
D03*
X85900Y150000D02*
D03*
X95500D02*
D03*
D62*
X36000Y148000D02*
D03*
D63*
X55050Y176000D02*
D03*
X42350D02*
D03*
X29650D02*
D03*
X16950D02*
D03*
Y120000D02*
D03*
X29650D02*
D03*
X42350D02*
D03*
X55050D02*
D03*
D64*
X19000Y300000D02*
D03*
X45000D02*
D03*
X141000Y96000D02*
D03*
X115000D02*
D03*
M02*
